%FSLAX23Y23*%
%MOIN*%
G70*
G01*
G75*
G04 Layer_Physical_Order=1*
G04 Layer_Color=255*
%ADD10C,0.010*%
%ADD11C,0.001*%
%ADD12C,0.055*%
%ADD13R,0.059X0.059*%
%ADD14C,0.059*%
%ADD15C,0.059*%
%ADD16C,0.063*%
%ADD17R,0.063X0.063*%
%ADD18C,0.070*%
%ADD19R,0.075X0.075*%
%ADD20C,0.075*%
%ADD21C,0.106*%
G04:AMPARAMS|DCode=22|XSize=173mil|YSize=94mil|CornerRadius=24mil|HoleSize=0mil|Usage=FLASHONLY|Rotation=90.000|XOffset=0mil|YOffset=0mil|HoleType=Round|Shape=RoundedRectangle|*
%AMROUNDEDRECTD22*
21,1,0.173,0.047,0,0,90.0*
21,1,0.126,0.094,0,0,90.0*
1,1,0.047,0.024,0.063*
1,1,0.047,0.024,-0.063*
1,1,0.047,-0.024,-0.063*
1,1,0.047,-0.024,0.063*
%
%ADD22ROUNDEDRECTD22*%
%ADD23R,0.185X0.094*%
G04:AMPARAMS|DCode=24|XSize=173mil|YSize=94mil|CornerRadius=24mil|HoleSize=0mil|Usage=FLASHONLY|Rotation=180.000|XOffset=0mil|YOffset=0mil|HoleType=Round|Shape=RoundedRectangle|*
%AMROUNDEDRECTD24*
21,1,0.173,0.047,0,0,180.0*
21,1,0.126,0.094,0,0,180.0*
1,1,0.047,-0.063,0.024*
1,1,0.047,0.063,0.024*
1,1,0.047,0.063,-0.024*
1,1,0.047,-0.063,-0.024*
%
%ADD24ROUNDEDRECTD24*%
%ADD25C,0.091*%
%ADD26O,0.079X0.039*%
%ADD27O,0.079X0.039*%
%ADD28O,0.039X0.079*%
%ADD29O,0.039X0.079*%
%ADD30R,0.059X0.059*%
%ADD31C,0.047*%
%ADD32C,0.039*%
%ADD33R,0.047X0.047*%
%ADD34C,0.079*%
%ADD35R,0.079X0.079*%
%ADD36C,0.071*%
D10*
X4583Y1147D02*
Y1181D01*
X4535Y2227D02*
X4545D01*
X4583Y1280D02*
X4803Y1500D01*
X4545Y2227D02*
X4803Y1969D01*
Y1500D02*
Y1969D01*
X4557Y1122D02*
X4583Y1147D01*
Y1181D02*
Y1280D01*
X4862Y1811D02*
X5354Y1319D01*
X5079Y4304D02*
X7670D01*
X7892Y4526D01*
X7972D01*
X5017Y2874D02*
Y3259D01*
X4685Y3592D02*
X5017Y3259D01*
X4685Y3692D02*
Y3925D01*
X4606Y4004D02*
X4685Y3925D01*
X5204Y3157D02*
Y3520D01*
X5295Y3611D01*
X5079Y3928D02*
X5295Y3711D01*
X5079Y3928D02*
Y4004D01*
X4606Y4304D02*
X5079D01*
X5138Y4363D01*
Y5413D01*
X3074Y5011D02*
X3169Y5106D01*
Y5406D02*
X3228D01*
X3346Y5288D01*
X3159Y4988D02*
X3346D01*
X3334Y4813D02*
X3346Y4825D01*
Y4988D01*
X7960Y2453D02*
Y2638D01*
Y2453D02*
X8031Y2382D01*
X8799Y367D02*
X8910Y256D01*
X8799Y367D02*
Y827D01*
X8720Y906D02*
X8799Y827D01*
X8484Y886D02*
X8720Y650D01*
X8484Y886D02*
Y1063D01*
X8307Y1240D02*
X8484Y1063D01*
X7244Y1791D02*
X7795Y1240D01*
X5807Y2047D02*
X6063Y1791D01*
X5714Y2047D02*
X5807D01*
X803Y5925D02*
X843Y5886D01*
Y5620D02*
Y5886D01*
X1433Y5659D02*
Y5925D01*
X1394Y5620D02*
X1433Y5659D01*
X2063Y5738D02*
Y5925D01*
X1945Y5620D02*
X2063Y5738D01*
X1143Y5520D02*
X1694D01*
X2245D01*
X2795Y6161D02*
X2894Y6063D01*
X2638Y6161D02*
X2795D01*
X2461Y5984D02*
X2638Y6161D01*
X2461Y5728D02*
Y5984D01*
X2252Y5520D02*
X2461Y5728D01*
X2245Y5520D02*
X2252D01*
X1059Y4936D02*
X1143Y5020D01*
X1059Y4796D02*
Y4936D01*
X864Y4796D02*
X1059D01*
X862Y4794D02*
X864Y4796D01*
X1689D02*
X1694Y4800D01*
Y5020D01*
X2004Y4794D02*
X2199D01*
X2201Y4796D01*
X2245Y4840D01*
Y5020D01*
X2795Y5728D02*
Y6063D01*
X1870Y4803D02*
X2795Y5728D01*
X1870Y4705D02*
Y4803D01*
Y4705D02*
X1870D01*
X1890Y4685D01*
X1995D01*
X2004Y4694D01*
X1492D02*
X1501Y4685D01*
X2004Y4744D02*
X2019Y4729D01*
X2038D01*
X2901Y3866D01*
X2913D01*
X1499Y4796D02*
X1689D01*
X1448Y4744D02*
X1499Y4796D01*
X1723Y5138D02*
X1791D01*
X1831Y5098D01*
Y4843D02*
Y5098D01*
Y4843D02*
X1870Y4803D01*
X2643Y3937D02*
X2913Y3666D01*
X2643Y3937D02*
Y3985D01*
X2617Y4011D02*
X2643Y3985D01*
X2569Y4011D02*
X2617D01*
X1413Y4710D02*
Y4729D01*
X1398Y4744D02*
X1413Y4729D01*
X1348Y4744D02*
X1363Y4759D01*
Y4778D01*
X1723Y5138D01*
X2150Y4429D02*
X2569Y4011D01*
X1413Y4710D02*
X1694Y4429D01*
X2150D01*
X2643Y3737D02*
X2913Y3466D01*
X2643Y3737D02*
Y3785D01*
X2617Y3811D02*
X2643Y3785D01*
X2569Y3811D02*
X2617D01*
X2009Y4370D02*
X2569Y3811D01*
X1124Y4370D02*
X2009D01*
X1016Y4478D02*
Y4515D01*
Y4478D02*
X1124Y4370D01*
X1298Y4694D02*
X1348Y4744D01*
X862Y4694D02*
X1298D01*
X906Y4626D02*
X1016Y4515D01*
X748Y4626D02*
X906D01*
X709Y4665D02*
X748Y4626D01*
X728Y4744D02*
X862D01*
X709Y4724D02*
X728Y4744D01*
X709Y4724D02*
X709Y4724D01*
Y4665D02*
Y4724D01*
X3334Y4146D02*
Y4813D01*
X2844Y5003D02*
Y5276D01*
Y5003D02*
X2854Y4993D01*
X2894Y5053D02*
Y5276D01*
Y5053D02*
X2954Y4993D01*
X3504Y5217D02*
X3957D01*
X3150Y5571D02*
X3504Y5217D01*
X2844Y5276D02*
X2859Y5291D01*
X3097Y5571D02*
X3150D01*
X2859Y5333D02*
X3097Y5571D01*
X2859Y5291D02*
Y5333D01*
X2992Y6063D02*
X3524Y5531D01*
X3622D01*
X3760Y5807D02*
X3898Y5945D01*
X3760Y5413D02*
Y5807D01*
X3681Y5335D02*
X3760Y5413D01*
X3622Y5335D02*
X3681D01*
X5928Y5831D02*
Y5906D01*
Y5831D02*
X6051Y5709D01*
X4451Y5965D02*
X5870D01*
X5928Y5906D01*
X3957Y5217D02*
X4171Y5431D01*
Y5748D01*
X4252Y5549D02*
X4451Y5748D01*
X4252Y5276D02*
Y5549D01*
X4016Y5039D02*
X4252Y5276D01*
X3898Y5039D02*
X4016D01*
X4705Y5426D02*
Y5630D01*
X4469Y5866D02*
X4705Y5630D01*
X4171Y5866D02*
X4469D01*
X4171Y5748D02*
Y5866D01*
Y5965D01*
X4717Y5413D02*
X5038D01*
X4705Y5426D02*
X4717Y5413D01*
X4929Y5622D02*
Y5689D01*
Y5622D02*
X5138Y5413D01*
X5238D02*
Y5680D01*
X5229Y5689D02*
X5238Y5680D01*
X5229Y5689D02*
X5342D01*
X7904Y3226D02*
X7972D01*
X7788Y3110D02*
X7904Y3226D01*
X7488Y2894D02*
Y3110D01*
X7480Y2886D02*
X7488Y2894D01*
Y3110D02*
X7704Y3326D01*
X7972D01*
X7658Y3426D02*
X7972D01*
X7283Y3051D02*
X7658Y3426D01*
X7780Y3626D02*
X7972D01*
X7264Y3110D02*
X7780Y3626D01*
X7866Y4126D02*
X7972D01*
X6909Y3169D02*
X7866Y4126D01*
X6870Y3209D02*
X7887Y4226D01*
X7972D01*
X5571Y3209D02*
X6870D01*
X5551Y3248D02*
X6811D01*
X7889Y4326D02*
X7972D01*
X6811Y3248D02*
X7889Y4326D01*
X6772Y3287D02*
X7910Y4426D01*
X7972D01*
Y4526D02*
X8091Y4408D01*
Y3248D02*
Y4408D01*
X8051Y3209D02*
X8091Y3248D01*
X7990Y3209D02*
X8051D01*
X7972Y3226D02*
X7990Y3209D01*
X8260Y2638D02*
Y3000D01*
X8051Y3209D02*
X8260Y3000D01*
X3334Y4146D02*
X4606Y2874D01*
X4617D01*
X4631Y2788D02*
X4717Y2874D01*
X3976Y2618D02*
X4146Y2788D01*
X4631D01*
X2913Y3966D02*
X3257D01*
X3268Y3976D01*
X3415D01*
X4517Y2874D01*
X2913Y3566D02*
X3567Y2913D01*
X4279D01*
X4317Y2874D01*
X4390D02*
X4417D01*
X3498Y3766D02*
X4390Y2874D01*
X2913Y3766D02*
X3498D01*
X4631Y2788D02*
X4817Y2602D01*
Y2244D02*
Y2602D01*
Y2774D02*
X4917Y2874D01*
X4817Y2602D02*
Y2774D01*
X7087Y3051D02*
X7283D01*
X7106Y3110D02*
X7264D01*
X6929Y2933D02*
X7106Y3110D01*
X6948Y2913D02*
X7087Y3051D01*
X5717Y2874D02*
X5740Y2896D01*
X5785D01*
X5801Y2913D01*
X6948D01*
X5709Y2933D02*
X6929D01*
X5650Y2874D02*
X5709Y2933D01*
X5617Y2874D02*
X5650D01*
X5517D02*
X5610Y2967D01*
X5689Y3169D02*
X6909D01*
X5610Y3091D02*
X5689Y3169D01*
X5610Y2967D02*
Y3091D01*
X5417Y3055D02*
X5571Y3209D01*
X5417Y2874D02*
Y3055D01*
X5317Y3014D02*
X5551Y3248D01*
X5317Y2874D02*
Y3014D01*
X4547Y4244D02*
X4606Y4304D01*
X4547Y3366D02*
Y4244D01*
Y3366D02*
X4717Y3196D01*
Y2874D02*
Y3196D01*
X5531Y3287D02*
X6772D01*
X5217Y2874D02*
Y2973D01*
X5531Y3287D01*
X5098Y3051D02*
X5204Y3157D01*
X5098Y2893D02*
Y3051D01*
Y2893D02*
X5117Y2874D01*
X5295Y3575D02*
Y3611D01*
X3366Y2618D02*
X3976D01*
X2913Y3071D02*
Y3366D01*
Y3071D02*
X3366Y2618D01*
X4647Y1122D02*
X4647Y1122D01*
X4817Y2242D02*
Y2244D01*
X4647Y1022D02*
X4821D01*
X4823Y1024D01*
X4882Y965D01*
Y787D02*
Y965D01*
X4803Y709D02*
X4882Y787D01*
X3563Y709D02*
X4803D01*
X3563D02*
Y1476D01*
X4252Y2165D01*
X4339D01*
X4417Y2244D01*
X5276Y677D02*
X5354Y756D01*
Y1319D01*
X4862Y1811D02*
Y2099D01*
X4717Y2244D02*
X4862Y2099D01*
X6083Y1154D02*
Y1217D01*
X5783Y1516D02*
X6083Y1217D01*
X5117Y2182D02*
X5783Y1516D01*
X5117Y2182D02*
Y2244D01*
X5017Y2089D02*
Y2244D01*
Y2089D02*
X5591Y1516D01*
X5630Y1154D02*
Y1476D01*
X5591Y1516D02*
X5630Y1476D01*
X5817Y2874D02*
X7283D01*
X8031Y2126D01*
X8452Y2035D02*
Y2638D01*
X8031Y1614D02*
X8452Y2035D01*
X8965Y2638D02*
X9205D01*
X8923Y2680D02*
X8965Y2638D01*
X8887Y2680D02*
X8923D01*
X8845Y2638D02*
X8887Y2680D01*
X8752Y2638D02*
X8845D01*
X8470Y2680D02*
X8513Y2638D01*
X8435Y2680D02*
X8470D01*
X8392Y2638D02*
X8435Y2680D01*
X8260Y2638D02*
X8392D01*
X8221Y256D02*
X8610D01*
X8513Y2638D02*
X8752D01*
X8905Y1799D02*
Y2638D01*
X8720Y1614D02*
X8905Y1799D01*
X8610Y256D02*
X8669Y197D01*
X8996D01*
Y2429D01*
X9205Y2638D01*
X8283Y1358D02*
X8720D01*
X8230Y1411D02*
X8283Y1358D01*
X5717Y2244D02*
X5796Y2165D01*
X7362Y1949D02*
X7900Y1411D01*
X8230D01*
X7795Y1358D02*
X8031D01*
X7283Y1870D02*
X7795Y1358D01*
X5517Y2244D02*
X5714Y2047D01*
X5617Y2244D02*
X5755Y2106D01*
X5796Y2165D02*
X6240D01*
X6457Y1949D01*
X7362D01*
X6327Y1870D02*
X7283D01*
X5755Y2106D02*
X6091D01*
X6327Y1870D01*
X6063Y1791D02*
X7244D01*
X7795Y1240D02*
X8307D01*
X7343Y1339D02*
X8031Y650D01*
X7343Y1339D02*
Y1535D01*
X7146Y1732D02*
X7343Y1535D01*
X5984Y1732D02*
X7146D01*
X5768Y1949D02*
X5984Y1732D01*
X5689Y1949D02*
X5768D01*
X5417Y2220D02*
X5689Y1949D01*
X5417Y2220D02*
Y2244D01*
D11*
X5858Y4473D02*
Y4575D01*
X5859Y4473D02*
Y4575D01*
X5860Y4473D02*
Y4575D01*
X5861Y4473D02*
Y4575D01*
X5862Y4473D02*
Y4575D01*
X5863Y4473D02*
Y4575D01*
X5864Y4473D02*
Y4575D01*
X5865Y4473D02*
Y4575D01*
X5866Y4473D02*
Y4575D01*
X5867Y4473D02*
Y4575D01*
X5868Y4473D02*
Y4575D01*
X5869Y4473D02*
Y4575D01*
X5870Y4473D02*
Y4575D01*
X5871Y4473D02*
Y4575D01*
Y5122D02*
Y5134D01*
X5872Y4473D02*
Y4575D01*
Y5122D02*
Y5134D01*
X5873Y4473D02*
Y4575D01*
Y5122D02*
Y5134D01*
X5874Y4473D02*
Y4575D01*
Y5122D02*
Y5134D01*
X5875Y4473D02*
Y4575D01*
Y5122D02*
Y5134D01*
X5876Y4473D02*
Y4575D01*
Y5122D02*
Y5134D01*
X5877Y4473D02*
Y4575D01*
Y5122D02*
Y5134D01*
X5878Y4473D02*
Y4575D01*
Y5122D02*
Y5134D01*
X5879Y4473D02*
Y4575D01*
Y5122D02*
Y5134D01*
X5880Y4473D02*
Y4575D01*
Y5122D02*
Y5134D01*
X5881Y4473D02*
Y4575D01*
Y5122D02*
Y5134D01*
X5882Y4473D02*
Y4575D01*
Y5122D02*
Y5134D01*
X5883Y4473D02*
Y4575D01*
Y5122D02*
Y5134D01*
X5884Y4473D02*
Y4575D01*
Y5122D02*
Y5134D01*
X5885Y4473D02*
Y4575D01*
Y5122D02*
Y5134D01*
X5886Y4473D02*
Y4575D01*
Y5122D02*
Y5134D01*
X5887Y4473D02*
Y4575D01*
Y4743D02*
Y4759D01*
Y4798D02*
Y4825D01*
Y4911D02*
Y4935D01*
Y5122D02*
Y5150D01*
X5888Y4473D02*
Y4575D01*
Y4743D02*
Y4759D01*
Y4798D02*
Y4825D01*
Y4911D02*
Y4935D01*
Y5122D02*
Y5150D01*
X5889Y4473D02*
Y4575D01*
Y4743D02*
Y4759D01*
Y4798D02*
Y4825D01*
Y4911D02*
Y4935D01*
Y5122D02*
Y5150D01*
X5890Y4473D02*
Y4575D01*
Y4743D02*
Y4759D01*
Y4798D02*
Y4825D01*
Y4911D02*
Y4935D01*
Y5122D02*
Y5150D01*
X5891Y4473D02*
Y4575D01*
Y4743D02*
Y4759D01*
Y4798D02*
Y4825D01*
Y4911D02*
Y4935D01*
Y5122D02*
Y5150D01*
X5892Y4473D02*
Y4508D01*
Y4540D02*
Y4575D01*
Y4743D02*
Y4759D01*
Y4798D02*
Y4825D01*
Y4911D02*
Y4935D01*
Y4950D02*
Y4970D01*
Y5122D02*
Y5150D01*
X5893Y4473D02*
Y4508D01*
Y4540D02*
Y4575D01*
Y4743D02*
Y4759D01*
Y4798D02*
Y4825D01*
Y4911D02*
Y4935D01*
Y4950D02*
Y4970D01*
Y5122D02*
Y5150D01*
X5894Y4473D02*
Y4508D01*
Y4540D02*
Y4575D01*
Y4743D02*
Y4759D01*
Y4798D02*
Y4825D01*
Y4911D02*
Y4935D01*
Y4950D02*
Y4970D01*
Y5122D02*
Y5150D01*
X5895Y4473D02*
Y4508D01*
Y4540D02*
Y4575D01*
Y4743D02*
Y4759D01*
Y4798D02*
Y4825D01*
Y4911D02*
Y4935D01*
Y4950D02*
Y4970D01*
Y5122D02*
Y5150D01*
X5896Y4473D02*
Y4508D01*
Y4540D02*
Y4575D01*
Y4743D02*
Y4759D01*
Y4798D02*
Y4825D01*
Y4911D02*
Y4935D01*
Y4950D02*
Y4970D01*
Y5122D02*
Y5150D01*
X5897Y4473D02*
Y4508D01*
Y4540D02*
Y4575D01*
Y4743D02*
Y4759D01*
Y4798D02*
Y4825D01*
Y4911D02*
Y4935D01*
Y4950D02*
Y4970D01*
Y5122D02*
Y5150D01*
X5898Y4473D02*
Y4508D01*
Y4540D02*
Y4575D01*
Y4743D02*
Y4759D01*
Y4798D02*
Y4825D01*
Y4911D02*
Y4935D01*
Y4950D02*
Y4970D01*
Y5122D02*
Y5150D01*
X5899Y4473D02*
Y4508D01*
Y4540D02*
Y4575D01*
Y4743D02*
Y4759D01*
Y4798D02*
Y4825D01*
Y4911D02*
Y4935D01*
Y4950D02*
Y4970D01*
Y5122D02*
Y5150D01*
X5900Y4473D02*
Y4508D01*
Y4540D02*
Y4575D01*
Y4743D02*
Y4759D01*
Y4798D02*
Y4825D01*
Y4911D02*
Y4935D01*
Y4950D02*
Y4970D01*
Y5122D02*
Y5150D01*
X5901Y4473D02*
Y4508D01*
Y4540D02*
Y4575D01*
Y4743D02*
Y4759D01*
Y4798D02*
Y4825D01*
Y4911D02*
Y4935D01*
Y4950D02*
Y4970D01*
Y5122D02*
Y5150D01*
X5902Y4473D02*
Y4508D01*
Y4540D02*
Y4575D01*
Y4743D02*
Y4759D01*
Y4798D02*
Y4825D01*
Y4911D02*
Y4935D01*
Y4950D02*
Y4970D01*
Y5122D02*
Y5150D01*
X5903Y4473D02*
Y4508D01*
Y4540D02*
Y4575D01*
Y4743D02*
Y4759D01*
Y4798D02*
Y4825D01*
Y4911D02*
Y4935D01*
Y4950D02*
Y4970D01*
Y5122D02*
Y5150D01*
X5904Y4473D02*
Y4508D01*
Y4540D02*
Y4575D01*
Y4743D02*
Y4759D01*
Y4798D02*
Y4825D01*
Y4911D02*
Y4935D01*
Y4950D02*
Y4970D01*
Y5122D02*
Y5150D01*
X5905Y4473D02*
Y4508D01*
Y4540D02*
Y4575D01*
Y4743D02*
Y4759D01*
Y4798D02*
Y4825D01*
Y4911D02*
Y4935D01*
Y4950D02*
Y4970D01*
Y5122D02*
Y5150D01*
X5906Y4473D02*
Y4508D01*
Y4540D02*
Y4575D01*
Y4743D02*
Y4759D01*
Y4798D02*
Y4825D01*
Y4911D02*
Y4935D01*
Y4950D02*
Y4970D01*
Y5122D02*
Y5150D01*
X5907Y4473D02*
Y4508D01*
Y4540D02*
Y4575D01*
Y4743D02*
Y4759D01*
Y4798D02*
Y4825D01*
Y4911D02*
Y4935D01*
Y4950D02*
Y4970D01*
Y5122D02*
Y5150D01*
X5908Y4473D02*
Y4508D01*
Y4540D02*
Y4575D01*
Y4743D02*
Y4759D01*
Y4798D02*
Y4825D01*
Y4911D02*
Y4935D01*
Y4950D02*
Y4970D01*
Y5122D02*
Y5150D01*
X5909Y4473D02*
Y4508D01*
Y4540D02*
Y4575D01*
Y4743D02*
Y4759D01*
Y4798D02*
Y4825D01*
Y4911D02*
Y4935D01*
Y4950D02*
Y4970D01*
Y5122D02*
Y5150D01*
X5910Y4473D02*
Y4508D01*
Y4540D02*
Y4575D01*
Y4743D02*
Y4759D01*
Y4798D02*
Y4825D01*
Y4911D02*
Y4935D01*
Y4950D02*
Y4970D01*
Y5122D02*
Y5150D01*
X5911Y4473D02*
Y4508D01*
Y4540D02*
Y4575D01*
Y4743D02*
Y4759D01*
Y4798D02*
Y4825D01*
Y4911D02*
Y4935D01*
Y4950D02*
Y4970D01*
Y5122D02*
Y5150D01*
X5912Y4473D02*
Y4508D01*
Y4540D02*
Y4575D01*
Y4743D02*
Y4759D01*
Y4798D02*
Y4825D01*
Y4911D02*
Y4935D01*
Y4950D02*
Y4970D01*
Y5122D02*
Y5150D01*
X5913Y4473D02*
Y4508D01*
Y4540D02*
Y4575D01*
Y4743D02*
Y4759D01*
Y4798D02*
Y4825D01*
Y4950D02*
Y4970D01*
Y5122D02*
Y5150D01*
X5914Y4473D02*
Y4508D01*
Y4540D02*
Y4575D01*
Y4743D02*
Y4759D01*
Y4798D02*
Y4825D01*
Y4950D02*
Y4970D01*
Y5122D02*
Y5150D01*
X5915Y4473D02*
Y4508D01*
Y4540D02*
Y4575D01*
Y4743D02*
Y4759D01*
Y4798D02*
Y4825D01*
Y4950D02*
Y4970D01*
Y5122D02*
Y5150D01*
X5916Y4473D02*
Y4508D01*
Y4540D02*
Y4575D01*
Y4743D02*
Y4759D01*
Y4798D02*
Y4825D01*
Y4950D02*
Y4970D01*
Y5122D02*
Y5150D01*
X5917Y4473D02*
Y4508D01*
Y4540D02*
Y4575D01*
Y4743D02*
Y4759D01*
Y4798D02*
Y4825D01*
Y4950D02*
Y4970D01*
Y5122D02*
Y5150D01*
X5918Y4473D02*
Y4508D01*
Y4540D02*
Y4575D01*
Y4743D02*
Y4759D01*
Y4798D02*
Y4825D01*
Y4950D02*
Y4970D01*
Y5122D02*
Y5150D01*
X5919Y4473D02*
Y4508D01*
Y4540D02*
Y4575D01*
Y4743D02*
Y4759D01*
Y4798D02*
Y4825D01*
Y4950D02*
Y4970D01*
Y5122D02*
Y5150D01*
X5920Y4473D02*
Y4508D01*
Y4540D02*
Y4575D01*
Y4743D02*
Y4759D01*
Y4798D02*
Y4825D01*
Y4950D02*
Y4970D01*
Y5122D02*
Y5150D01*
X5921Y4473D02*
Y4508D01*
Y4540D02*
Y4575D01*
Y4743D02*
Y4759D01*
Y4798D02*
Y4825D01*
Y4950D02*
Y4970D01*
Y5122D02*
Y5150D01*
X5922Y4473D02*
Y4508D01*
Y4540D02*
Y4575D01*
Y4743D02*
Y4759D01*
Y4798D02*
Y4825D01*
Y4950D02*
Y4970D01*
Y5122D02*
Y5150D01*
X5923Y4473D02*
Y4508D01*
Y4540D02*
Y4575D01*
Y4743D02*
Y4759D01*
Y4798D02*
Y4825D01*
Y4950D02*
Y4970D01*
Y5122D02*
Y5150D01*
X5924Y4473D02*
Y4508D01*
Y4540D02*
Y4575D01*
Y4743D02*
Y4759D01*
Y4798D02*
Y4825D01*
Y4950D02*
Y4970D01*
Y5122D02*
Y5150D01*
X5925Y4473D02*
Y4508D01*
Y4540D02*
Y4575D01*
Y4743D02*
Y4759D01*
Y4798D02*
Y4825D01*
Y4950D02*
Y4970D01*
Y5122D02*
Y5150D01*
X5926Y4473D02*
Y4508D01*
Y4540D02*
Y4575D01*
Y4743D02*
Y4759D01*
Y4798D02*
Y4825D01*
Y4837D02*
Y4896D01*
Y4911D02*
Y4935D01*
Y4946D02*
Y4997D01*
Y5005D02*
Y5048D01*
Y5083D02*
Y5150D01*
X5927Y4473D02*
Y4508D01*
Y4540D02*
Y4575D01*
Y4743D02*
Y4759D01*
Y4798D02*
Y4825D01*
Y4837D02*
Y4896D01*
Y4911D02*
Y4935D01*
Y4946D02*
Y4997D01*
Y5005D02*
Y5048D01*
Y5083D02*
Y5150D01*
X5928Y4473D02*
Y4508D01*
Y4540D02*
Y4575D01*
Y4743D02*
Y4759D01*
Y4798D02*
Y4825D01*
Y4837D02*
Y4896D01*
Y4911D02*
Y4935D01*
Y4946D02*
Y4997D01*
Y5005D02*
Y5048D01*
Y5083D02*
Y5150D01*
X5929Y4473D02*
Y4508D01*
Y4540D02*
Y4575D01*
Y4743D02*
Y4759D01*
Y4798D02*
Y4825D01*
Y4837D02*
Y4896D01*
Y4911D02*
Y4935D01*
Y4946D02*
Y4997D01*
Y5005D02*
Y5048D01*
Y5083D02*
Y5150D01*
X5930Y4473D02*
Y4508D01*
Y4540D02*
Y4575D01*
Y4743D02*
Y4759D01*
Y4798D02*
Y4825D01*
Y4837D02*
Y4896D01*
Y4911D02*
Y4935D01*
Y4946D02*
Y4997D01*
Y5005D02*
Y5048D01*
Y5083D02*
Y5150D01*
X5931Y4473D02*
Y4508D01*
Y4540D02*
Y4575D01*
Y4743D02*
Y4759D01*
Y4798D02*
Y4825D01*
Y4837D02*
Y4896D01*
Y4911D02*
Y4935D01*
Y4946D02*
Y4997D01*
Y5005D02*
Y5048D01*
Y5083D02*
Y5150D01*
X5932Y4473D02*
Y4508D01*
Y4540D02*
Y4575D01*
Y4743D02*
Y4759D01*
Y4798D02*
Y4825D01*
Y4837D02*
Y4896D01*
Y4911D02*
Y4935D01*
Y4946D02*
Y4997D01*
Y5005D02*
Y5048D01*
Y5083D02*
Y5150D01*
X5933Y4473D02*
Y4508D01*
Y4540D02*
Y4575D01*
Y4743D02*
Y4759D01*
Y4798D02*
Y4825D01*
Y4837D02*
Y4896D01*
Y4911D02*
Y4935D01*
Y4946D02*
Y4997D01*
Y5005D02*
Y5048D01*
Y5083D02*
Y5150D01*
X5934Y4473D02*
Y4508D01*
Y4540D02*
Y4575D01*
Y4743D02*
Y4759D01*
Y4798D02*
Y4825D01*
Y4837D02*
Y4896D01*
Y4911D02*
Y4935D01*
Y4946D02*
Y4997D01*
Y5005D02*
Y5048D01*
Y5083D02*
Y5150D01*
X5935Y4473D02*
Y4508D01*
Y4540D02*
Y4575D01*
Y4743D02*
Y4759D01*
Y4798D02*
Y4825D01*
Y4837D02*
Y4896D01*
Y4911D02*
Y4935D01*
Y4946D02*
Y4997D01*
Y5005D02*
Y5048D01*
Y5083D02*
Y5150D01*
X5936Y4473D02*
Y4508D01*
Y4540D02*
Y4575D01*
Y4743D02*
Y4759D01*
Y4798D02*
Y4825D01*
Y4837D02*
Y4896D01*
Y4911D02*
Y4935D01*
Y4946D02*
Y4997D01*
Y5005D02*
Y5048D01*
Y5083D02*
Y5150D01*
X5937Y4473D02*
Y4508D01*
Y4540D02*
Y4575D01*
Y4743D02*
Y4759D01*
Y4798D02*
Y4825D01*
Y4837D02*
Y4896D01*
Y4911D02*
Y4935D01*
Y4946D02*
Y4997D01*
Y5005D02*
Y5048D01*
Y5083D02*
Y5150D01*
X5938Y4473D02*
Y4508D01*
Y4540D02*
Y4575D01*
Y4743D02*
Y4759D01*
Y4798D02*
Y4825D01*
Y4837D02*
Y4849D01*
Y4880D02*
Y4896D01*
Y4911D02*
Y4935D01*
Y4950D02*
Y4970D01*
Y5001D02*
Y5017D01*
Y5040D02*
Y5056D01*
Y5072D02*
Y5103D01*
Y5115D02*
Y5150D01*
X5939Y4473D02*
Y4508D01*
Y4540D02*
Y4575D01*
Y4743D02*
Y4759D01*
Y4798D02*
Y4825D01*
Y4837D02*
Y4849D01*
Y4880D02*
Y4896D01*
Y4911D02*
Y4935D01*
Y4950D02*
Y4970D01*
Y5001D02*
Y5017D01*
Y5040D02*
Y5056D01*
Y5072D02*
Y5103D01*
Y5115D02*
Y5150D01*
X5940Y4473D02*
Y4508D01*
Y4540D02*
Y4575D01*
Y4743D02*
Y4759D01*
Y4798D02*
Y4825D01*
Y4837D02*
Y4849D01*
Y4880D02*
Y4896D01*
Y4911D02*
Y4935D01*
Y4950D02*
Y4970D01*
Y5001D02*
Y5017D01*
Y5040D02*
Y5056D01*
Y5072D02*
Y5103D01*
Y5115D02*
Y5150D01*
X5941Y4473D02*
Y4508D01*
Y4540D02*
Y4575D01*
Y4743D02*
Y4759D01*
Y4798D02*
Y4825D01*
Y4837D02*
Y4849D01*
Y4880D02*
Y4896D01*
Y4911D02*
Y4935D01*
Y4950D02*
Y4970D01*
Y5001D02*
Y5017D01*
Y5040D02*
Y5056D01*
Y5072D02*
Y5103D01*
Y5115D02*
Y5150D01*
X5942Y4473D02*
Y4508D01*
Y4540D02*
Y4575D01*
Y4743D02*
Y4759D01*
Y4798D02*
Y4825D01*
Y4837D02*
Y4849D01*
Y4880D02*
Y4896D01*
Y4911D02*
Y4935D01*
Y4950D02*
Y4970D01*
Y5001D02*
Y5017D01*
Y5040D02*
Y5056D01*
Y5072D02*
Y5103D01*
Y5115D02*
Y5150D01*
X5943Y4473D02*
Y4508D01*
Y4540D02*
Y4575D01*
Y4743D02*
Y4759D01*
Y4798D02*
Y4825D01*
Y4837D02*
Y4849D01*
Y4880D02*
Y4896D01*
Y4911D02*
Y4935D01*
Y4950D02*
Y4970D01*
Y5001D02*
Y5017D01*
Y5040D02*
Y5056D01*
Y5072D02*
Y5103D01*
Y5115D02*
Y5150D01*
X5944Y4473D02*
Y4508D01*
Y4540D02*
Y4575D01*
Y4743D02*
Y4759D01*
Y4798D02*
Y4825D01*
Y4837D02*
Y4849D01*
Y4880D02*
Y4896D01*
Y4911D02*
Y4935D01*
Y4950D02*
Y4970D01*
Y5001D02*
Y5017D01*
Y5040D02*
Y5056D01*
Y5072D02*
Y5103D01*
Y5115D02*
Y5150D01*
X5945Y4473D02*
Y4508D01*
Y4540D02*
Y4575D01*
Y4743D02*
Y4759D01*
Y4798D02*
Y4825D01*
Y4837D02*
Y4849D01*
Y4880D02*
Y4896D01*
Y4911D02*
Y4935D01*
Y4950D02*
Y4970D01*
Y5001D02*
Y5017D01*
Y5040D02*
Y5056D01*
Y5072D02*
Y5103D01*
Y5115D02*
Y5150D01*
X5946Y4473D02*
Y4508D01*
Y4540D02*
Y4575D01*
Y4743D02*
Y4759D01*
Y4798D02*
Y4825D01*
Y4837D02*
Y4849D01*
Y4880D02*
Y4896D01*
Y4911D02*
Y4935D01*
Y4950D02*
Y4970D01*
Y5001D02*
Y5017D01*
Y5040D02*
Y5056D01*
Y5072D02*
Y5103D01*
Y5115D02*
Y5150D01*
X5947Y4473D02*
Y4508D01*
Y4540D02*
Y4575D01*
Y4743D02*
Y4759D01*
Y4798D02*
Y4825D01*
Y4837D02*
Y4849D01*
Y4880D02*
Y4896D01*
Y4911D02*
Y4935D01*
Y4950D02*
Y4970D01*
Y5001D02*
Y5017D01*
Y5040D02*
Y5056D01*
Y5072D02*
Y5103D01*
Y5115D02*
Y5150D01*
X5948Y4473D02*
Y4508D01*
Y4540D02*
Y4575D01*
Y4743D02*
Y4759D01*
Y4798D02*
Y4825D01*
Y4837D02*
Y4849D01*
Y4880D02*
Y4896D01*
Y4911D02*
Y4935D01*
Y4950D02*
Y4970D01*
Y5001D02*
Y5017D01*
Y5040D02*
Y5056D01*
Y5072D02*
Y5103D01*
Y5115D02*
Y5150D01*
X5949Y4473D02*
Y4508D01*
Y4540D02*
Y4575D01*
Y4743D02*
Y4759D01*
Y4798D02*
Y4825D01*
Y4837D02*
Y4849D01*
Y4880D02*
Y4896D01*
Y4911D02*
Y4935D01*
Y4950D02*
Y4970D01*
Y5001D02*
Y5017D01*
Y5040D02*
Y5056D01*
Y5072D02*
Y5103D01*
Y5115D02*
Y5150D01*
X5950Y4473D02*
Y4508D01*
Y4540D02*
Y4575D01*
Y4743D02*
Y4759D01*
Y4798D02*
Y4825D01*
Y4837D02*
Y4849D01*
Y4880D02*
Y4896D01*
Y4911D02*
Y4935D01*
Y4950D02*
Y4970D01*
Y5001D02*
Y5017D01*
Y5040D02*
Y5056D01*
Y5072D02*
Y5103D01*
Y5115D02*
Y5150D01*
X5951Y4473D02*
Y4508D01*
Y4540D02*
Y4575D01*
Y4743D02*
Y4759D01*
Y4798D02*
Y4825D01*
Y4837D02*
Y4849D01*
Y4880D02*
Y4896D01*
Y4911D02*
Y4935D01*
Y4950D02*
Y4970D01*
Y5001D02*
Y5017D01*
Y5040D02*
Y5056D01*
Y5072D02*
Y5103D01*
Y5115D02*
Y5150D01*
X5952Y4473D02*
Y4508D01*
Y4540D02*
Y4575D01*
Y4743D02*
Y4759D01*
Y4798D02*
Y4825D01*
Y4837D02*
Y4849D01*
Y4880D02*
Y4896D01*
Y4911D02*
Y4935D01*
Y4950D02*
Y4970D01*
Y5001D02*
Y5017D01*
Y5040D02*
Y5056D01*
Y5072D02*
Y5103D01*
Y5115D02*
Y5150D01*
X5953Y4473D02*
Y4508D01*
Y4540D02*
Y4575D01*
Y4743D02*
Y4759D01*
Y4798D02*
Y4825D01*
Y4837D02*
Y4849D01*
Y4880D02*
Y4896D01*
Y4911D02*
Y4935D01*
Y4950D02*
Y4970D01*
Y5001D02*
Y5017D01*
Y5040D02*
Y5056D01*
Y5072D02*
Y5103D01*
Y5115D02*
Y5150D01*
X5954Y4473D02*
Y4508D01*
Y4540D02*
Y4575D01*
Y4743D02*
Y4759D01*
Y4798D02*
Y4825D01*
Y4837D02*
Y4849D01*
Y4880D02*
Y4896D01*
Y4911D02*
Y4935D01*
Y4950D02*
Y4970D01*
Y5001D02*
Y5017D01*
Y5040D02*
Y5056D01*
Y5072D02*
Y5103D01*
Y5115D02*
Y5150D01*
X5955Y4473D02*
Y4508D01*
Y4540D02*
Y4575D01*
Y4743D02*
Y4759D01*
Y4798D02*
Y4825D01*
Y4837D02*
Y4849D01*
Y4880D02*
Y4896D01*
Y4911D02*
Y4935D01*
Y4950D02*
Y4970D01*
Y5001D02*
Y5005D01*
Y5048D02*
Y5056D01*
Y5072D02*
Y5103D01*
Y5122D02*
Y5150D01*
X5956Y4473D02*
Y4508D01*
Y4540D02*
Y4575D01*
Y4743D02*
Y4759D01*
Y4798D02*
Y4825D01*
Y4837D02*
Y4849D01*
Y4880D02*
Y4896D01*
Y4911D02*
Y4935D01*
Y4950D02*
Y4970D01*
Y5001D02*
Y5005D01*
Y5048D02*
Y5056D01*
Y5072D02*
Y5103D01*
Y5122D02*
Y5150D01*
X5957Y4473D02*
Y4508D01*
Y4540D02*
Y4575D01*
Y4743D02*
Y4759D01*
Y4798D02*
Y4825D01*
Y4837D02*
Y4849D01*
Y4880D02*
Y4896D01*
Y4911D02*
Y4935D01*
Y4950D02*
Y4970D01*
Y5001D02*
Y5005D01*
Y5048D02*
Y5056D01*
Y5072D02*
Y5103D01*
Y5122D02*
Y5150D01*
X5958Y4473D02*
Y4508D01*
Y4540D02*
Y4575D01*
Y4743D02*
Y4759D01*
Y4798D02*
Y4825D01*
Y4837D02*
Y4849D01*
Y4880D02*
Y4896D01*
Y4911D02*
Y4935D01*
Y4950D02*
Y4970D01*
Y5001D02*
Y5005D01*
Y5048D02*
Y5056D01*
Y5072D02*
Y5103D01*
Y5122D02*
Y5150D01*
X5959Y4473D02*
Y4508D01*
Y4540D02*
Y4575D01*
Y4743D02*
Y4759D01*
Y4798D02*
Y4825D01*
Y4837D02*
Y4849D01*
Y4880D02*
Y4896D01*
Y4911D02*
Y4935D01*
Y4950D02*
Y4970D01*
Y5001D02*
Y5005D01*
Y5048D02*
Y5056D01*
Y5072D02*
Y5103D01*
Y5122D02*
Y5150D01*
X5960Y4473D02*
Y4508D01*
Y4540D02*
Y4575D01*
Y4743D02*
Y4759D01*
Y4798D02*
Y4825D01*
Y4837D02*
Y4849D01*
Y4880D02*
Y4896D01*
Y4911D02*
Y4935D01*
Y4950D02*
Y4970D01*
Y5001D02*
Y5005D01*
Y5048D02*
Y5056D01*
Y5072D02*
Y5103D01*
Y5122D02*
Y5150D01*
X5961Y4473D02*
Y4508D01*
Y4540D02*
Y4575D01*
Y4743D02*
Y4759D01*
Y4798D02*
Y4825D01*
Y4837D02*
Y4849D01*
Y4880D02*
Y4896D01*
Y4911D02*
Y4935D01*
Y4950D02*
Y4970D01*
Y5001D02*
Y5005D01*
Y5048D02*
Y5056D01*
Y5072D02*
Y5103D01*
Y5122D02*
Y5150D01*
X5962Y4473D02*
Y4508D01*
Y4540D02*
Y4575D01*
Y4743D02*
Y4759D01*
Y4798D02*
Y4825D01*
Y4837D02*
Y4849D01*
Y4880D02*
Y4896D01*
Y4911D02*
Y4935D01*
Y4950D02*
Y4970D01*
Y5001D02*
Y5005D01*
Y5048D02*
Y5056D01*
Y5072D02*
Y5103D01*
Y5122D02*
Y5150D01*
X5963Y4473D02*
Y4508D01*
Y4540D02*
Y4575D01*
Y4743D02*
Y4759D01*
Y4798D02*
Y4825D01*
Y4837D02*
Y4849D01*
Y4880D02*
Y4896D01*
Y4911D02*
Y4935D01*
Y4950D02*
Y4970D01*
Y5001D02*
Y5005D01*
Y5048D02*
Y5056D01*
Y5072D02*
Y5103D01*
Y5122D02*
Y5150D01*
X5964Y4473D02*
Y4508D01*
Y4540D02*
Y4575D01*
Y4743D02*
Y4759D01*
Y4798D02*
Y4825D01*
Y4837D02*
Y4849D01*
Y4880D02*
Y4896D01*
Y4911D02*
Y4935D01*
Y4950D02*
Y4970D01*
Y5001D02*
Y5005D01*
Y5048D02*
Y5056D01*
Y5072D02*
Y5103D01*
Y5122D02*
Y5150D01*
X5965Y4473D02*
Y4508D01*
Y4540D02*
Y4575D01*
Y4743D02*
Y4759D01*
Y4798D02*
Y4825D01*
Y4837D02*
Y4849D01*
Y4880D02*
Y4896D01*
Y4911D02*
Y4935D01*
Y4950D02*
Y4970D01*
Y5001D02*
Y5005D01*
Y5048D02*
Y5056D01*
Y5072D02*
Y5103D01*
Y5122D02*
Y5150D01*
X5966Y4473D02*
Y4508D01*
Y4540D02*
Y4575D01*
Y4743D02*
Y4759D01*
Y4798D02*
Y4825D01*
Y4837D02*
Y4849D01*
Y4880D02*
Y4896D01*
Y4911D02*
Y4935D01*
Y4950D02*
Y4970D01*
Y5001D02*
Y5005D01*
Y5048D02*
Y5056D01*
Y5072D02*
Y5103D01*
Y5122D02*
Y5150D01*
X5967Y4473D02*
Y4508D01*
Y4540D02*
Y4575D01*
Y4743D02*
Y4759D01*
Y4798D02*
Y4825D01*
Y4837D02*
Y4849D01*
Y4880D02*
Y4896D01*
Y4911D02*
Y4935D01*
Y4950D02*
Y4970D01*
Y5001D02*
Y5005D01*
Y5048D02*
Y5056D01*
Y5072D02*
Y5103D01*
Y5122D02*
Y5150D01*
X5968Y4473D02*
Y4508D01*
Y4540D02*
Y4575D01*
Y4743D02*
Y4759D01*
Y4798D02*
Y4825D01*
Y4837D02*
Y4849D01*
Y4880D02*
Y4896D01*
Y4911D02*
Y4935D01*
Y4950D02*
Y4970D01*
Y4997D02*
Y5056D01*
Y5068D02*
Y5083D01*
Y5122D02*
Y5150D01*
X5969Y4473D02*
Y4508D01*
Y4540D02*
Y4575D01*
Y4743D02*
Y4759D01*
Y4798D02*
Y4825D01*
Y4837D02*
Y4849D01*
Y4880D02*
Y4896D01*
Y4911D02*
Y4935D01*
Y4950D02*
Y4970D01*
Y4997D02*
Y5056D01*
Y5068D02*
Y5083D01*
Y5122D02*
Y5150D01*
X5970Y4473D02*
Y4508D01*
Y4540D02*
Y4575D01*
Y4743D02*
Y4759D01*
Y4798D02*
Y4825D01*
Y4837D02*
Y4849D01*
Y4880D02*
Y4896D01*
Y4911D02*
Y4935D01*
Y4950D02*
Y4970D01*
Y4997D02*
Y5056D01*
Y5068D02*
Y5083D01*
Y5122D02*
Y5150D01*
X5971Y4473D02*
Y4508D01*
Y4540D02*
Y4575D01*
Y4743D02*
Y4759D01*
Y4798D02*
Y4825D01*
Y4837D02*
Y4849D01*
Y4880D02*
Y4896D01*
Y4911D02*
Y4935D01*
Y4950D02*
Y4970D01*
Y4997D02*
Y5056D01*
Y5068D02*
Y5083D01*
Y5122D02*
Y5150D01*
X5972Y4473D02*
Y4508D01*
Y4540D02*
Y4575D01*
Y4743D02*
Y4759D01*
Y4798D02*
Y4825D01*
Y4837D02*
Y4849D01*
Y4880D02*
Y4896D01*
Y4911D02*
Y4935D01*
Y4950D02*
Y4970D01*
Y4997D02*
Y5056D01*
Y5068D02*
Y5083D01*
Y5122D02*
Y5150D01*
X5973Y4473D02*
Y4508D01*
Y4540D02*
Y4575D01*
Y4743D02*
Y4759D01*
Y4798D02*
Y4825D01*
Y4837D02*
Y4849D01*
Y4880D02*
Y4896D01*
Y4911D02*
Y4935D01*
Y4950D02*
Y4970D01*
Y4997D02*
Y5056D01*
Y5068D02*
Y5083D01*
Y5122D02*
Y5150D01*
X5974Y4473D02*
Y4508D01*
Y4540D02*
Y4575D01*
Y4743D02*
Y4759D01*
Y4798D02*
Y4825D01*
Y4837D02*
Y4849D01*
Y4880D02*
Y4896D01*
Y4911D02*
Y4935D01*
Y4950D02*
Y4970D01*
Y4997D02*
Y5056D01*
Y5068D02*
Y5083D01*
Y5122D02*
Y5150D01*
X5975Y4473D02*
Y4508D01*
Y4540D02*
Y4575D01*
Y4743D02*
Y4759D01*
Y4798D02*
Y4825D01*
Y4837D02*
Y4849D01*
Y4880D02*
Y4896D01*
Y4911D02*
Y4935D01*
Y4950D02*
Y4970D01*
Y4997D02*
Y5056D01*
Y5068D02*
Y5083D01*
Y5122D02*
Y5150D01*
X5976Y4473D02*
Y4508D01*
Y4540D02*
Y4575D01*
Y4743D02*
Y4759D01*
Y4798D02*
Y4825D01*
Y4837D02*
Y4849D01*
Y4880D02*
Y4896D01*
Y4911D02*
Y4935D01*
Y4950D02*
Y4970D01*
Y4997D02*
Y5005D01*
Y5068D02*
Y5083D01*
Y5122D02*
Y5150D01*
X5977Y4473D02*
Y4508D01*
Y4540D02*
Y4575D01*
Y4743D02*
Y4759D01*
Y4798D02*
Y4825D01*
Y4837D02*
Y4849D01*
Y4880D02*
Y4896D01*
Y4911D02*
Y4935D01*
Y4950D02*
Y4970D01*
Y4997D02*
Y5005D01*
Y5068D02*
Y5083D01*
Y5122D02*
Y5150D01*
X5978Y4473D02*
Y4508D01*
Y4540D02*
Y4575D01*
Y4743D02*
Y4759D01*
Y4798D02*
Y4825D01*
Y4837D02*
Y4849D01*
Y4880D02*
Y4896D01*
Y4911D02*
Y4935D01*
Y4950D02*
Y4970D01*
Y4997D02*
Y5005D01*
Y5068D02*
Y5083D01*
Y5122D02*
Y5150D01*
X5979Y4473D02*
Y4508D01*
Y4540D02*
Y4575D01*
Y4743D02*
Y4759D01*
Y4798D02*
Y4825D01*
Y4837D02*
Y4849D01*
Y4880D02*
Y4896D01*
Y4911D02*
Y4935D01*
Y4950D02*
Y4970D01*
Y4997D02*
Y5005D01*
Y5068D02*
Y5083D01*
Y5122D02*
Y5150D01*
X5980Y4473D02*
Y4508D01*
Y4540D02*
Y4575D01*
Y4743D02*
Y4759D01*
Y4798D02*
Y4825D01*
Y4837D02*
Y4849D01*
Y4880D02*
Y4896D01*
Y4911D02*
Y4935D01*
Y4950D02*
Y4970D01*
Y4997D02*
Y5005D01*
Y5068D02*
Y5083D01*
Y5122D02*
Y5150D01*
X5981Y4473D02*
Y4508D01*
Y4540D02*
Y4575D01*
Y4743D02*
Y4759D01*
Y4798D02*
Y4825D01*
Y4837D02*
Y4849D01*
Y4880D02*
Y4896D01*
Y4911D02*
Y4935D01*
Y4950D02*
Y4970D01*
Y4997D02*
Y5005D01*
Y5068D02*
Y5083D01*
Y5122D02*
Y5150D01*
X5982Y4473D02*
Y4508D01*
Y4540D02*
Y4575D01*
Y4743D02*
Y4759D01*
Y4798D02*
Y4825D01*
Y4837D02*
Y4849D01*
Y4880D02*
Y4896D01*
Y4911D02*
Y4935D01*
Y4950D02*
Y4970D01*
Y4997D02*
Y5005D01*
Y5068D02*
Y5083D01*
Y5122D02*
Y5150D01*
X5983Y4473D02*
Y4508D01*
Y4540D02*
Y4575D01*
Y4743D02*
Y4759D01*
Y4798D02*
Y4825D01*
Y4837D02*
Y4849D01*
Y4880D02*
Y4896D01*
Y4911D02*
Y4935D01*
Y4950D02*
Y4970D01*
Y4997D02*
Y5005D01*
Y5068D02*
Y5083D01*
Y5122D02*
Y5150D01*
X5984Y4473D02*
Y4508D01*
Y4540D02*
Y4575D01*
Y4743D02*
Y4759D01*
Y4798D02*
Y4825D01*
Y4837D02*
Y4849D01*
Y4880D02*
Y4896D01*
Y4911D02*
Y4935D01*
Y4950D02*
Y4970D01*
Y4997D02*
Y5005D01*
Y5068D02*
Y5083D01*
Y5122D02*
Y5150D01*
X5985Y4473D02*
Y4508D01*
Y4540D02*
Y4575D01*
Y4743D02*
Y4759D01*
Y4798D02*
Y4825D01*
Y4837D02*
Y4849D01*
Y4880D02*
Y4896D01*
Y4911D02*
Y4935D01*
Y4950D02*
Y4970D01*
Y4997D02*
Y5005D01*
Y5068D02*
Y5083D01*
Y5122D02*
Y5150D01*
X5986Y4473D02*
Y4508D01*
Y4540D02*
Y4575D01*
Y4743D02*
Y4759D01*
Y4798D02*
Y4825D01*
Y4837D02*
Y4849D01*
Y4880D02*
Y4896D01*
Y4911D02*
Y4935D01*
Y4950D02*
Y4970D01*
Y4997D02*
Y5005D01*
Y5068D02*
Y5083D01*
Y5122D02*
Y5150D01*
X5987Y4473D02*
Y4508D01*
Y4540D02*
Y4575D01*
Y4743D02*
Y4759D01*
Y4798D02*
Y4825D01*
Y4837D02*
Y4849D01*
Y4880D02*
Y4896D01*
Y4911D02*
Y4935D01*
Y4950D02*
Y4970D01*
Y4997D02*
Y5005D01*
Y5068D02*
Y5083D01*
Y5122D02*
Y5150D01*
X5988Y4473D02*
Y4508D01*
Y4540D02*
Y4575D01*
Y4743D02*
Y4759D01*
Y4798D02*
Y4825D01*
Y4837D02*
Y4849D01*
Y4880D02*
Y4896D01*
Y4911D02*
Y4935D01*
Y4950D02*
Y4970D01*
Y4997D02*
Y5005D01*
Y5068D02*
Y5083D01*
Y5122D02*
Y5150D01*
X5989Y4473D02*
Y4508D01*
Y4540D02*
Y4575D01*
Y4743D02*
Y4759D01*
Y4798D02*
Y4825D01*
Y4837D02*
Y4849D01*
Y4880D02*
Y4896D01*
Y4911D02*
Y4935D01*
Y4950D02*
Y4970D01*
Y5001D02*
Y5017D01*
Y5072D02*
Y5103D01*
Y5115D02*
Y5150D01*
X5990Y4473D02*
Y4508D01*
Y4540D02*
Y4575D01*
Y4743D02*
Y4759D01*
Y4798D02*
Y4825D01*
Y4837D02*
Y4849D01*
Y4880D02*
Y4896D01*
Y4911D02*
Y4935D01*
Y4950D02*
Y4970D01*
Y5001D02*
Y5017D01*
Y5072D02*
Y5103D01*
Y5115D02*
Y5150D01*
X5991Y4473D02*
Y4508D01*
Y4540D02*
Y4575D01*
Y4743D02*
Y4759D01*
Y4798D02*
Y4825D01*
Y4837D02*
Y4849D01*
Y4880D02*
Y4896D01*
Y4911D02*
Y4935D01*
Y4950D02*
Y4970D01*
Y5001D02*
Y5017D01*
Y5072D02*
Y5103D01*
Y5115D02*
Y5150D01*
X5992Y4473D02*
Y4508D01*
Y4540D02*
Y4575D01*
Y4743D02*
Y4759D01*
Y4798D02*
Y4825D01*
Y4837D02*
Y4849D01*
Y4880D02*
Y4896D01*
Y4911D02*
Y4935D01*
Y4950D02*
Y4970D01*
Y5001D02*
Y5017D01*
Y5072D02*
Y5103D01*
Y5115D02*
Y5150D01*
X5993Y4473D02*
Y4508D01*
Y4540D02*
Y4575D01*
Y4743D02*
Y4759D01*
Y4798D02*
Y4825D01*
Y4837D02*
Y4849D01*
Y4880D02*
Y4896D01*
Y4911D02*
Y4935D01*
Y4950D02*
Y4970D01*
Y5001D02*
Y5017D01*
Y5072D02*
Y5103D01*
Y5115D02*
Y5150D01*
X5994Y4473D02*
Y4508D01*
Y4540D02*
Y4575D01*
Y4743D02*
Y4759D01*
Y4798D02*
Y4825D01*
Y4837D02*
Y4849D01*
Y4880D02*
Y4896D01*
Y4911D02*
Y4935D01*
Y4950D02*
Y4970D01*
Y5001D02*
Y5017D01*
Y5072D02*
Y5103D01*
Y5115D02*
Y5150D01*
X5995Y4473D02*
Y4508D01*
Y4540D02*
Y4575D01*
Y4743D02*
Y4759D01*
Y4798D02*
Y4825D01*
Y4837D02*
Y4849D01*
Y4880D02*
Y4896D01*
Y4911D02*
Y4935D01*
Y4950D02*
Y4970D01*
Y5001D02*
Y5017D01*
Y5072D02*
Y5103D01*
Y5115D02*
Y5150D01*
X5996Y4473D02*
Y4508D01*
Y4540D02*
Y4575D01*
Y4743D02*
Y4759D01*
Y4798D02*
Y4825D01*
Y4837D02*
Y4849D01*
Y4880D02*
Y4896D01*
Y4911D02*
Y4935D01*
Y4950D02*
Y4970D01*
Y5001D02*
Y5017D01*
Y5072D02*
Y5103D01*
Y5115D02*
Y5150D01*
X5997Y4473D02*
Y4508D01*
Y4540D02*
Y4575D01*
Y4743D02*
Y4759D01*
Y4798D02*
Y4825D01*
Y4837D02*
Y4849D01*
Y4880D02*
Y4896D01*
Y4911D02*
Y4935D01*
Y4950D02*
Y4970D01*
Y5001D02*
Y5017D01*
Y5072D02*
Y5103D01*
Y5115D02*
Y5150D01*
X5998Y4473D02*
Y4508D01*
Y4540D02*
Y4575D01*
Y4743D02*
Y4759D01*
Y4798D02*
Y4825D01*
Y4837D02*
Y4849D01*
Y4880D02*
Y4896D01*
Y4911D02*
Y4935D01*
Y4950D02*
Y4970D01*
Y5001D02*
Y5017D01*
Y5072D02*
Y5103D01*
Y5115D02*
Y5150D01*
X5999Y4473D02*
Y4508D01*
Y4540D02*
Y4575D01*
Y4743D02*
Y4759D01*
Y4798D02*
Y4825D01*
Y4837D02*
Y4849D01*
Y4880D02*
Y4896D01*
Y4911D02*
Y4935D01*
Y4950D02*
Y4970D01*
Y5001D02*
Y5017D01*
Y5072D02*
Y5103D01*
Y5115D02*
Y5150D01*
X6000Y4473D02*
Y4508D01*
Y4540D02*
Y4575D01*
Y4743D02*
Y4759D01*
Y4798D02*
Y4825D01*
Y4837D02*
Y4849D01*
Y4880D02*
Y4896D01*
Y4911D02*
Y4935D01*
Y4950D02*
Y4970D01*
Y5001D02*
Y5017D01*
Y5072D02*
Y5103D01*
Y5115D02*
Y5150D01*
X6001Y4473D02*
Y4508D01*
Y4540D02*
Y4575D01*
Y4743D02*
Y4759D01*
Y4798D02*
Y4825D01*
Y4837D02*
Y4849D01*
Y4880D02*
Y4896D01*
Y4911D02*
Y4935D01*
Y4950D02*
Y4970D01*
Y5001D02*
Y5017D01*
Y5072D02*
Y5103D01*
Y5115D02*
Y5150D01*
X6002Y4473D02*
Y4508D01*
Y4540D02*
Y4575D01*
Y4743D02*
Y4759D01*
Y4798D02*
Y4825D01*
Y4837D02*
Y4849D01*
Y4880D02*
Y4896D01*
Y4911D02*
Y4935D01*
Y4950D02*
Y4970D01*
Y5001D02*
Y5017D01*
Y5072D02*
Y5103D01*
Y5115D02*
Y5150D01*
X6003Y4473D02*
Y4508D01*
Y4540D02*
Y4575D01*
Y4743D02*
Y4759D01*
Y4798D02*
Y4825D01*
Y4837D02*
Y4849D01*
Y4880D02*
Y4896D01*
Y4911D02*
Y4935D01*
Y4950D02*
Y4970D01*
Y5001D02*
Y5017D01*
Y5072D02*
Y5103D01*
Y5115D02*
Y5150D01*
X6004Y4473D02*
Y4508D01*
Y4540D02*
Y4575D01*
Y4743D02*
Y4759D01*
Y4798D02*
Y4825D01*
Y4837D02*
Y4849D01*
Y4880D02*
Y4896D01*
Y4911D02*
Y4935D01*
Y4950D02*
Y4970D01*
Y5001D02*
Y5017D01*
Y5072D02*
Y5103D01*
Y5115D02*
Y5150D01*
X6005Y4473D02*
Y4508D01*
Y4540D02*
Y4575D01*
Y4743D02*
Y4759D01*
Y4798D02*
Y4825D01*
Y4837D02*
Y4849D01*
Y4880D02*
Y4896D01*
Y4911D02*
Y4935D01*
Y4950D02*
Y4970D01*
Y5001D02*
Y5017D01*
Y5072D02*
Y5103D01*
Y5115D02*
Y5150D01*
X6006Y4473D02*
Y4508D01*
Y4540D02*
Y4575D01*
Y4751D02*
Y4802D01*
Y4837D02*
Y4849D01*
Y4880D02*
Y4896D01*
Y4911D02*
Y4935D01*
Y4950D02*
Y4997D01*
Y5001D02*
Y5056D01*
Y5072D02*
Y5150D01*
X6007Y4473D02*
Y4508D01*
Y4540D02*
Y4575D01*
Y4751D02*
Y4802D01*
Y4837D02*
Y4849D01*
Y4880D02*
Y4896D01*
Y4911D02*
Y4935D01*
Y4950D02*
Y4997D01*
Y5001D02*
Y5056D01*
Y5072D02*
Y5150D01*
X6008Y4473D02*
Y4508D01*
Y4540D02*
Y4575D01*
Y4751D02*
Y4802D01*
Y4837D02*
Y4849D01*
Y4880D02*
Y4896D01*
Y4911D02*
Y4935D01*
Y4950D02*
Y4997D01*
Y5001D02*
Y5056D01*
Y5072D02*
Y5150D01*
X6009Y4473D02*
Y4508D01*
Y4540D02*
Y4575D01*
Y4751D02*
Y4802D01*
Y4837D02*
Y4849D01*
Y4880D02*
Y4896D01*
Y4911D02*
Y4935D01*
Y4950D02*
Y4997D01*
Y5001D02*
Y5056D01*
Y5072D02*
Y5150D01*
X6010Y4473D02*
Y4508D01*
Y4540D02*
Y4575D01*
Y4759D02*
Y4798D01*
Y4837D02*
Y4849D01*
Y4880D02*
Y4896D01*
Y4911D02*
Y4935D01*
Y4962D02*
Y4997D01*
Y5005D02*
Y5048D01*
Y5083D02*
Y5115D01*
Y5122D02*
Y5150D01*
X6011Y4473D02*
Y4508D01*
Y4540D02*
Y4575D01*
Y4759D02*
Y4798D01*
Y4837D02*
Y4849D01*
Y4880D02*
Y4896D01*
Y4911D02*
Y4935D01*
Y4962D02*
Y4997D01*
Y5005D02*
Y5048D01*
Y5083D02*
Y5115D01*
Y5122D02*
Y5150D01*
X6012Y4473D02*
Y4508D01*
Y4540D02*
Y4575D01*
Y4759D02*
Y4798D01*
Y4837D02*
Y4849D01*
Y4880D02*
Y4896D01*
Y4911D02*
Y4935D01*
Y4962D02*
Y4997D01*
Y5005D02*
Y5048D01*
Y5083D02*
Y5115D01*
Y5122D02*
Y5150D01*
X6013Y4473D02*
Y4508D01*
Y4540D02*
Y4575D01*
Y4759D02*
Y4798D01*
Y4837D02*
Y4849D01*
Y4880D02*
Y4896D01*
Y4911D02*
Y4935D01*
Y4962D02*
Y4997D01*
Y5005D02*
Y5048D01*
Y5083D02*
Y5115D01*
Y5122D02*
Y5150D01*
X6014Y4473D02*
Y4508D01*
Y4540D02*
Y4575D01*
Y4759D02*
Y4798D01*
Y4837D02*
Y4849D01*
Y4880D02*
Y4896D01*
Y4911D02*
Y4935D01*
Y4962D02*
Y4997D01*
Y5005D02*
Y5048D01*
Y5083D02*
Y5115D01*
Y5122D02*
Y5150D01*
X6015Y4473D02*
Y4508D01*
Y4540D02*
Y4575D01*
Y4759D02*
Y4798D01*
Y4837D02*
Y4849D01*
Y4880D02*
Y4896D01*
Y4911D02*
Y4935D01*
Y4962D02*
Y4997D01*
Y5005D02*
Y5048D01*
Y5083D02*
Y5115D01*
Y5122D02*
Y5150D01*
X6016Y4473D02*
Y4508D01*
Y4540D02*
Y4575D01*
Y4759D02*
Y4798D01*
Y4837D02*
Y4849D01*
Y4880D02*
Y4896D01*
Y4911D02*
Y4935D01*
Y4962D02*
Y4997D01*
Y5005D02*
Y5048D01*
Y5083D02*
Y5115D01*
Y5122D02*
Y5150D01*
X6017Y4473D02*
Y4508D01*
Y4540D02*
Y4575D01*
Y4759D02*
Y4798D01*
Y4837D02*
Y4849D01*
Y4880D02*
Y4896D01*
Y4911D02*
Y4935D01*
Y4962D02*
Y4997D01*
Y5005D02*
Y5048D01*
Y5083D02*
Y5115D01*
Y5122D02*
Y5150D01*
X6018Y4473D02*
Y4508D01*
Y4540D02*
Y4575D01*
Y4759D02*
Y4798D01*
Y4837D02*
Y4849D01*
Y4880D02*
Y4896D01*
Y4911D02*
Y4935D01*
Y4962D02*
Y4997D01*
Y5005D02*
Y5048D01*
Y5083D02*
Y5115D01*
Y5122D02*
Y5150D01*
X6019Y4473D02*
Y4508D01*
Y4540D02*
Y4575D01*
Y4759D02*
Y4798D01*
Y4837D02*
Y4849D01*
Y4880D02*
Y4896D01*
Y4911D02*
Y4935D01*
Y4962D02*
Y4997D01*
Y5005D02*
Y5048D01*
Y5083D02*
Y5115D01*
Y5122D02*
Y5150D01*
X6020Y4473D02*
Y4508D01*
Y4540D02*
Y4575D01*
Y4759D02*
Y4798D01*
Y4837D02*
Y4849D01*
Y4880D02*
Y4896D01*
Y4911D02*
Y4935D01*
Y4962D02*
Y4997D01*
Y5005D02*
Y5048D01*
Y5083D02*
Y5115D01*
Y5122D02*
Y5150D01*
X6021Y4473D02*
Y4508D01*
Y4540D02*
Y4575D01*
Y4759D02*
Y4798D01*
Y4837D02*
Y4849D01*
Y4880D02*
Y4896D01*
Y4911D02*
Y4935D01*
Y4962D02*
Y4997D01*
Y5005D02*
Y5048D01*
Y5083D02*
Y5115D01*
Y5122D02*
Y5150D01*
X6022Y4473D02*
Y4508D01*
Y4540D02*
Y4575D01*
Y4759D02*
Y4798D01*
Y4837D02*
Y4849D01*
Y4880D02*
Y4896D01*
Y4911D02*
Y4935D01*
Y4962D02*
Y4997D01*
Y5005D02*
Y5048D01*
Y5083D02*
Y5115D01*
Y5122D02*
Y5150D01*
X6023Y4473D02*
Y4508D01*
Y4540D02*
Y4575D01*
Y4759D02*
Y4798D01*
Y4837D02*
Y4849D01*
Y4880D02*
Y4896D01*
Y4911D02*
Y4935D01*
Y4962D02*
Y4997D01*
Y5005D02*
Y5048D01*
Y5083D02*
Y5115D01*
Y5122D02*
Y5150D01*
X6024Y4473D02*
Y4508D01*
Y4540D02*
Y4575D01*
Y4759D02*
Y4798D01*
Y4837D02*
Y4849D01*
Y4880D02*
Y4896D01*
Y4911D02*
Y4935D01*
Y4962D02*
Y4997D01*
Y5005D02*
Y5048D01*
Y5083D02*
Y5115D01*
Y5122D02*
Y5150D01*
X6025Y4473D02*
Y4508D01*
Y4540D02*
Y4575D01*
Y4759D02*
Y4798D01*
Y4837D02*
Y4849D01*
Y4880D02*
Y4896D01*
Y4911D02*
Y4935D01*
Y4962D02*
Y4997D01*
Y5005D02*
Y5048D01*
Y5083D02*
Y5115D01*
Y5122D02*
Y5150D01*
X6026Y4473D02*
Y4508D01*
Y4540D02*
Y4575D01*
Y4759D02*
Y4798D01*
Y4837D02*
Y4849D01*
Y4880D02*
Y4896D01*
Y4911D02*
Y4935D01*
Y4962D02*
Y4997D01*
Y5005D02*
Y5048D01*
Y5083D02*
Y5115D01*
Y5122D02*
Y5150D01*
X6027Y4473D02*
Y4508D01*
Y4540D02*
Y4575D01*
X6028Y4473D02*
Y4508D01*
Y4540D02*
Y4575D01*
X6029Y4473D02*
Y4508D01*
Y4540D02*
Y4575D01*
X6030Y4473D02*
Y4508D01*
Y4540D02*
Y4575D01*
X6031Y4473D02*
Y4508D01*
Y4540D02*
Y4575D01*
X6032Y4473D02*
Y4508D01*
Y4540D02*
Y4575D01*
X6033Y4473D02*
Y4508D01*
Y4540D02*
Y4575D01*
X6034Y4473D02*
Y4508D01*
Y4540D02*
Y4575D01*
X6035Y4473D02*
Y4508D01*
Y4540D02*
Y4575D01*
X6036Y4473D02*
Y4508D01*
Y4540D02*
Y4575D01*
X6037Y4473D02*
Y4508D01*
Y4540D02*
Y4575D01*
X6038Y4473D02*
Y4508D01*
Y4540D02*
Y4575D01*
X6039Y4473D02*
Y4508D01*
Y4540D02*
Y4575D01*
X6040Y4473D02*
Y4508D01*
Y4540D02*
Y4575D01*
X6041Y4473D02*
Y4508D01*
Y4540D02*
Y4575D01*
X6042Y4473D02*
Y4508D01*
Y4540D02*
Y4575D01*
X6043Y4473D02*
Y4508D01*
Y4540D02*
Y4575D01*
X6044Y4473D02*
Y4508D01*
Y4540D02*
Y4575D01*
X6045Y4473D02*
Y4508D01*
Y4540D02*
Y4575D01*
X6046Y4473D02*
Y4508D01*
Y4540D02*
Y4575D01*
X6047Y4473D02*
Y4508D01*
Y4540D02*
Y4575D01*
X6048Y4473D02*
Y4508D01*
Y4540D02*
Y4575D01*
X6049Y4473D02*
Y4508D01*
Y4540D02*
Y4575D01*
X6050Y4473D02*
Y4508D01*
Y4540D02*
Y4575D01*
X6051Y4473D02*
Y4508D01*
Y4540D02*
Y4575D01*
X6052Y4473D02*
Y4508D01*
Y4540D02*
Y4575D01*
X6053Y4473D02*
Y4508D01*
Y4540D02*
Y4575D01*
Y5267D02*
Y5306D01*
X6054Y4473D02*
Y4508D01*
Y4540D02*
Y4575D01*
Y5267D02*
Y5306D01*
X6055Y4473D02*
Y4508D01*
Y4540D02*
Y4575D01*
Y5267D02*
Y5306D01*
X6056Y4473D02*
Y4508D01*
Y4540D02*
Y4575D01*
Y5267D02*
Y5306D01*
X6057Y4473D02*
Y4508D01*
Y4540D02*
Y4575D01*
Y5267D02*
Y5306D01*
X6058Y4473D02*
Y4508D01*
Y4540D02*
Y4575D01*
Y5267D02*
Y5306D01*
X6059Y4473D02*
Y4508D01*
Y4540D02*
Y4575D01*
Y5267D02*
Y5306D01*
X6060Y4473D02*
Y4508D01*
Y4540D02*
Y4575D01*
Y5267D02*
Y5306D01*
X6061Y4473D02*
Y4508D01*
Y4540D02*
Y4575D01*
Y5267D02*
Y5306D01*
X6062Y4473D02*
Y4508D01*
Y4540D02*
Y4575D01*
Y5267D02*
Y5306D01*
X6063Y4473D02*
Y4508D01*
Y4540D02*
Y4575D01*
Y5267D02*
Y5306D01*
X6064Y4473D02*
Y4508D01*
Y4540D02*
Y4575D01*
Y5267D02*
Y5306D01*
X6065Y4473D02*
Y4508D01*
Y4540D02*
Y4575D01*
Y5267D02*
Y5306D01*
X6066Y4473D02*
Y4508D01*
Y4540D02*
Y4575D01*
Y5267D02*
Y5306D01*
X6067Y4473D02*
Y4508D01*
Y4540D02*
Y4575D01*
Y5267D02*
Y5306D01*
X6068Y4473D02*
Y4508D01*
Y4540D02*
Y4575D01*
Y5267D02*
Y5306D01*
X6069Y4473D02*
Y4508D01*
Y4540D02*
Y4575D01*
Y5267D02*
Y5306D01*
X6070Y4473D02*
Y4508D01*
Y4540D02*
Y4575D01*
Y5259D02*
Y5322D01*
X6071Y4473D02*
Y4508D01*
Y4540D02*
Y4575D01*
Y5259D02*
Y5322D01*
X6072Y4473D02*
Y4508D01*
Y4540D02*
Y4575D01*
Y5259D02*
Y5322D01*
X6073Y4473D02*
Y4508D01*
Y4540D02*
Y4575D01*
Y5259D02*
Y5322D01*
X6074Y4473D02*
Y4508D01*
Y4540D02*
Y4575D01*
Y5255D02*
Y5326D01*
X6075Y4473D02*
Y4508D01*
Y4540D02*
Y4575D01*
Y5255D02*
Y5326D01*
X6076Y4473D02*
Y4508D01*
Y4540D02*
Y4575D01*
Y5255D02*
Y5326D01*
X6077Y4473D02*
Y4508D01*
Y4540D02*
Y4575D01*
Y5255D02*
Y5326D01*
X6078Y4473D02*
Y4508D01*
Y4540D02*
Y4575D01*
Y5255D02*
Y5326D01*
X6079Y4473D02*
Y4508D01*
Y4540D02*
Y4575D01*
Y5255D02*
Y5326D01*
X6080Y4473D02*
Y4508D01*
Y4540D02*
Y4575D01*
Y5255D02*
Y5326D01*
X6081Y4473D02*
Y4508D01*
Y4540D02*
Y4575D01*
Y5255D02*
Y5326D01*
X6082Y4473D02*
Y4508D01*
Y4540D02*
Y4575D01*
Y5255D02*
Y5326D01*
X6083Y4473D02*
Y4508D01*
Y4540D02*
Y4575D01*
Y5255D02*
Y5326D01*
X6084Y4473D02*
Y4508D01*
Y4540D02*
Y4575D01*
Y5255D02*
Y5326D01*
X6085Y4473D02*
Y4508D01*
Y4540D02*
Y4575D01*
Y5255D02*
Y5326D01*
X6086Y4473D02*
Y4508D01*
Y4540D02*
Y4575D01*
Y5255D02*
Y5326D01*
X6087Y4473D02*
Y4508D01*
Y4540D02*
Y4575D01*
Y5255D02*
Y5326D01*
X6088Y4473D02*
Y4508D01*
Y4540D02*
Y4575D01*
Y5255D02*
Y5326D01*
X6089Y4473D02*
Y4508D01*
Y4540D02*
Y4575D01*
Y5255D02*
Y5326D01*
X6090Y4473D02*
Y4508D01*
Y4540D02*
Y4575D01*
Y5255D02*
Y5326D01*
X6091Y4473D02*
Y4508D01*
Y4540D02*
Y4575D01*
Y5255D02*
Y5326D01*
X6092Y4473D02*
Y4508D01*
Y4540D02*
Y4575D01*
Y5255D02*
Y5326D01*
X6093Y4473D02*
Y4508D01*
Y4540D02*
Y4575D01*
Y5255D02*
Y5326D01*
X6094Y4473D02*
Y4508D01*
Y4540D02*
Y4575D01*
Y5255D02*
Y5326D01*
X6095Y4473D02*
Y5326D01*
X6096Y4473D02*
Y5326D01*
X6097Y4473D02*
Y5326D01*
X6098Y4473D02*
Y5326D01*
X6099Y4473D02*
Y5326D01*
X6100Y4473D02*
Y5326D01*
X6101Y4473D02*
Y5326D01*
X6102Y4473D02*
Y5326D01*
X6103Y4473D02*
Y5326D01*
X6104Y4473D02*
Y5326D01*
X6105Y4473D02*
Y5326D01*
X6106Y4473D02*
Y5326D01*
X6107Y4473D02*
Y5326D01*
X6108Y4473D02*
Y5326D01*
X6109Y4473D02*
Y5326D01*
X6110Y4473D02*
Y5326D01*
X6111Y4473D02*
Y5326D01*
X6112Y4473D02*
Y5326D01*
X6113Y4473D02*
Y5326D01*
X6114Y4473D02*
Y5326D01*
X6115Y4473D02*
Y5326D01*
X6116Y4473D02*
Y5326D01*
X6117Y4473D02*
Y5326D01*
X6118Y4473D02*
Y5326D01*
X6119Y4473D02*
Y5326D01*
X6120Y4473D02*
Y4508D01*
Y4540D02*
Y4575D01*
Y5255D02*
Y5322D01*
X6121Y4473D02*
Y4508D01*
Y4540D02*
Y4575D01*
Y5255D02*
Y5322D01*
X6122Y4473D02*
Y4508D01*
Y4540D02*
Y4575D01*
Y5255D02*
Y5322D01*
X6123Y4473D02*
Y4508D01*
Y4540D02*
Y4575D01*
Y5255D02*
Y5322D01*
X6124Y4473D02*
Y4508D01*
Y4540D02*
Y4575D01*
Y5255D02*
Y5322D01*
X6125Y4473D02*
Y4508D01*
Y4540D02*
Y4575D01*
Y5255D02*
Y5322D01*
X6126Y4473D02*
Y4508D01*
Y4540D02*
Y4575D01*
Y5255D02*
Y5322D01*
X6127Y4473D02*
Y4508D01*
Y4540D02*
Y4575D01*
Y5255D02*
Y5322D01*
X6128Y4473D02*
Y4508D01*
Y4540D02*
Y4575D01*
Y5255D02*
Y5322D01*
X6129Y4473D02*
Y4508D01*
Y4540D02*
Y4575D01*
Y5255D02*
Y5322D01*
X6130Y4473D02*
Y4508D01*
Y4540D02*
Y4575D01*
Y5255D02*
Y5322D01*
X6131Y4473D02*
Y4508D01*
Y4540D02*
Y4575D01*
Y5255D02*
Y5322D01*
X6132Y4473D02*
Y4508D01*
Y4540D02*
Y4575D01*
Y5255D02*
Y5322D01*
X6133Y4473D02*
Y4508D01*
Y4540D02*
Y4575D01*
Y5255D02*
Y5322D01*
X6134Y4473D02*
Y4508D01*
Y4540D02*
Y4575D01*
Y5255D02*
Y5322D01*
X6135Y4473D02*
Y4508D01*
Y4540D02*
Y4575D01*
Y5255D02*
Y5322D01*
X6136Y4473D02*
Y4508D01*
Y4540D02*
Y4575D01*
Y5255D02*
Y5322D01*
X6137Y4473D02*
Y4508D01*
Y4540D02*
Y4575D01*
Y4622D02*
Y4676D01*
Y4684D02*
Y4696D01*
Y5122D02*
Y5150D01*
Y5255D02*
Y5322D01*
X6138Y4473D02*
Y4508D01*
Y4540D02*
Y4575D01*
Y4622D02*
Y4676D01*
Y4684D02*
Y4696D01*
Y5122D02*
Y5150D01*
Y5255D02*
Y5322D01*
X6139Y4473D02*
Y4508D01*
Y4540D02*
Y4575D01*
Y4622D02*
Y4676D01*
Y4684D02*
Y4696D01*
Y5122D02*
Y5150D01*
Y5255D02*
Y5322D01*
X6140Y4473D02*
Y4508D01*
Y4540D02*
Y4575D01*
Y4622D02*
Y4676D01*
Y4684D02*
Y4696D01*
Y5122D02*
Y5150D01*
Y5255D02*
Y5322D01*
X6141Y4473D02*
Y4508D01*
Y4540D02*
Y4575D01*
Y4622D02*
Y4676D01*
Y4684D02*
Y4696D01*
Y5122D02*
Y5150D01*
Y5255D02*
Y5322D01*
X6142Y4473D02*
Y4508D01*
Y4540D02*
Y4575D01*
Y4622D02*
Y4676D01*
Y4684D02*
Y4696D01*
Y5122D02*
Y5150D01*
Y5255D02*
Y5322D01*
X6143Y4473D02*
Y4508D01*
Y4540D02*
Y4575D01*
Y4622D02*
Y4676D01*
Y4684D02*
Y4696D01*
Y5122D02*
Y5150D01*
Y5255D02*
Y5322D01*
X6144Y4473D02*
Y4508D01*
Y4540D02*
Y4575D01*
Y4622D02*
Y4676D01*
Y4684D02*
Y4696D01*
Y5122D02*
Y5150D01*
Y5255D02*
Y5322D01*
X6145Y4473D02*
Y4508D01*
Y4540D02*
Y4575D01*
Y4622D02*
Y4676D01*
Y4684D02*
Y4696D01*
Y5122D02*
Y5150D01*
Y5255D02*
Y5322D01*
X6146Y4473D02*
Y4508D01*
Y4540D02*
Y4575D01*
Y4622D02*
Y4676D01*
Y4684D02*
Y4696D01*
Y5122D02*
Y5150D01*
Y5255D02*
Y5322D01*
X6147Y4473D02*
Y4508D01*
Y4540D02*
Y4575D01*
Y4622D02*
Y4676D01*
Y4684D02*
Y4696D01*
Y5122D02*
Y5150D01*
Y5255D02*
Y5322D01*
X6148Y4473D02*
Y4508D01*
Y4540D02*
Y4575D01*
Y4622D02*
Y4676D01*
Y4684D02*
Y4696D01*
Y5122D02*
Y5150D01*
Y5255D02*
Y5322D01*
X6149Y4473D02*
Y4508D01*
Y4540D02*
Y4575D01*
Y4622D02*
Y4676D01*
Y4684D02*
Y4696D01*
Y5122D02*
Y5150D01*
Y5255D02*
Y5322D01*
X6150Y4473D02*
Y4508D01*
Y4540D02*
Y4575D01*
Y4622D02*
Y4676D01*
Y4684D02*
Y4696D01*
Y5122D02*
Y5150D01*
Y5255D02*
Y5322D01*
X6151Y4473D02*
Y4508D01*
Y4540D02*
Y4575D01*
Y4622D02*
Y4676D01*
Y4684D02*
Y4696D01*
Y5122D02*
Y5150D01*
Y5255D02*
Y5322D01*
X6152Y4473D02*
Y4508D01*
Y4540D02*
Y4575D01*
Y4622D02*
Y4676D01*
Y4684D02*
Y4696D01*
Y5122D02*
Y5150D01*
Y5255D02*
Y5322D01*
X6153Y4473D02*
Y4508D01*
Y4540D02*
Y4575D01*
Y4622D02*
Y4676D01*
Y4684D02*
Y4696D01*
Y5122D02*
Y5150D01*
Y5255D02*
Y5322D01*
X6154Y4473D02*
Y4508D01*
Y4540D02*
Y4575D01*
Y4622D02*
Y4676D01*
Y4684D02*
Y4696D01*
Y4864D02*
Y4880D01*
Y5122D02*
Y5150D01*
Y5267D02*
Y5306D01*
X6155Y4473D02*
Y4508D01*
Y4540D02*
Y4575D01*
Y4622D02*
Y4676D01*
Y4684D02*
Y4696D01*
Y4864D02*
Y4880D01*
Y5122D02*
Y5150D01*
Y5267D02*
Y5306D01*
X6156Y4473D02*
Y4508D01*
Y4540D02*
Y4575D01*
Y4622D02*
Y4676D01*
Y4684D02*
Y4696D01*
Y4864D02*
Y4880D01*
Y5122D02*
Y5150D01*
Y5267D02*
Y5306D01*
X6157Y4473D02*
Y4508D01*
Y4540D02*
Y4575D01*
Y4622D02*
Y4676D01*
Y4684D02*
Y4696D01*
Y4864D02*
Y4880D01*
Y5122D02*
Y5150D01*
Y5267D02*
Y5306D01*
X6158Y4473D02*
Y4508D01*
Y4540D02*
Y4575D01*
Y4622D02*
Y4641D01*
Y4684D02*
Y4696D01*
Y4864D02*
Y4880D01*
X6159Y4473D02*
Y4508D01*
Y4540D02*
Y4575D01*
Y4622D02*
Y4641D01*
Y4684D02*
Y4696D01*
Y4864D02*
Y4880D01*
X6160Y4473D02*
Y4508D01*
Y4540D02*
Y4575D01*
Y4622D02*
Y4641D01*
Y4684D02*
Y4696D01*
Y4864D02*
Y4880D01*
X6161Y4473D02*
Y4508D01*
Y4540D02*
Y4575D01*
Y4622D02*
Y4641D01*
Y4684D02*
Y4696D01*
Y4864D02*
Y4880D01*
X6162Y4473D02*
Y4508D01*
Y4540D02*
Y4575D01*
Y4622D02*
Y4641D01*
Y4684D02*
Y4696D01*
Y4864D02*
Y4880D01*
X6163Y4473D02*
Y4508D01*
Y4540D02*
Y4575D01*
Y4622D02*
Y4641D01*
Y4684D02*
Y4696D01*
Y4864D02*
Y4880D01*
X6164Y4473D02*
Y4508D01*
Y4540D02*
Y4575D01*
Y4622D02*
Y4641D01*
Y4684D02*
Y4696D01*
Y4864D02*
Y4880D01*
X6165Y4473D02*
Y4508D01*
Y4540D02*
Y4575D01*
Y4622D02*
Y4641D01*
Y4684D02*
Y4696D01*
Y4864D02*
Y4880D01*
X6166Y4473D02*
Y4508D01*
Y4540D02*
Y4575D01*
Y4622D02*
Y4641D01*
Y4684D02*
Y4696D01*
Y4864D02*
Y4880D01*
X6167Y4473D02*
Y4508D01*
Y4540D02*
Y4575D01*
Y4622D02*
Y4641D01*
Y4684D02*
Y4696D01*
Y4864D02*
Y4880D01*
X6168Y4473D02*
Y4508D01*
Y4540D02*
Y4575D01*
Y4622D02*
Y4641D01*
Y4684D02*
Y4696D01*
Y4864D02*
Y4880D01*
X6169Y4473D02*
Y4508D01*
Y4540D02*
Y4575D01*
Y4622D02*
Y4641D01*
Y4684D02*
Y4696D01*
Y4864D02*
Y4880D01*
X6170Y4473D02*
Y4508D01*
Y4540D02*
Y4575D01*
Y4622D02*
Y4641D01*
Y4684D02*
Y4696D01*
Y4864D02*
Y4880D01*
X6171Y4473D02*
Y4508D01*
Y4540D02*
Y4575D01*
Y4622D02*
Y4641D01*
Y4684D02*
Y4696D01*
Y4864D02*
Y4880D01*
X6172Y4473D02*
Y4508D01*
Y4540D02*
Y4575D01*
Y4622D02*
Y4641D01*
Y4684D02*
Y4696D01*
Y4864D02*
Y4880D01*
X6173Y4473D02*
Y4508D01*
Y4540D02*
Y4575D01*
Y4622D02*
Y4641D01*
Y4684D02*
Y4696D01*
Y4864D02*
Y4880D01*
X6174Y4473D02*
Y4508D01*
Y4540D02*
Y4575D01*
Y4622D02*
Y4641D01*
Y4684D02*
Y4696D01*
Y4864D02*
Y4880D01*
X6175Y4473D02*
Y4508D01*
Y4540D02*
Y4575D01*
Y4622D02*
Y4641D01*
Y4684D02*
Y4696D01*
Y4731D02*
Y4770D01*
Y4798D02*
Y4849D01*
Y4852D02*
Y4896D01*
Y4911D02*
Y4950D01*
Y4970D02*
Y5017D01*
Y5048D02*
Y5107D01*
Y5122D02*
Y5150D01*
Y5173D02*
Y5201D01*
Y5220D02*
Y5267D01*
X6176Y4473D02*
Y4508D01*
Y4540D02*
Y4575D01*
Y4622D02*
Y4641D01*
Y4684D02*
Y4696D01*
Y4731D02*
Y4770D01*
Y4798D02*
Y4849D01*
Y4852D02*
Y4896D01*
Y4911D02*
Y4950D01*
Y4970D02*
Y5017D01*
Y5048D02*
Y5107D01*
Y5122D02*
Y5150D01*
Y5173D02*
Y5201D01*
Y5220D02*
Y5267D01*
X6177Y4473D02*
Y4508D01*
Y4540D02*
Y4575D01*
Y4622D02*
Y4641D01*
Y4684D02*
Y4696D01*
Y4731D02*
Y4770D01*
Y4798D02*
Y4849D01*
Y4852D02*
Y4896D01*
Y4911D02*
Y4950D01*
Y4970D02*
Y5017D01*
Y5048D02*
Y5107D01*
Y5122D02*
Y5150D01*
Y5173D02*
Y5201D01*
Y5220D02*
Y5267D01*
X6178Y4473D02*
Y4508D01*
Y4540D02*
Y4575D01*
Y4622D02*
Y4641D01*
Y4684D02*
Y4696D01*
Y4731D02*
Y4770D01*
Y4798D02*
Y4849D01*
Y4852D02*
Y4896D01*
Y4911D02*
Y4950D01*
Y4970D02*
Y5017D01*
Y5048D02*
Y5107D01*
Y5122D02*
Y5150D01*
Y5173D02*
Y5201D01*
Y5220D02*
Y5267D01*
X6179Y4473D02*
Y4508D01*
Y4540D02*
Y4575D01*
Y4622D02*
Y4641D01*
Y4684D02*
Y4696D01*
Y4731D02*
Y4770D01*
Y4798D02*
Y4849D01*
Y4852D02*
Y4896D01*
Y4911D02*
Y4950D01*
Y4970D02*
Y5017D01*
Y5048D02*
Y5107D01*
Y5122D02*
Y5150D01*
Y5173D02*
Y5201D01*
Y5220D02*
Y5267D01*
X6180Y4473D02*
Y4508D01*
Y4540D02*
Y4575D01*
Y4622D02*
Y4641D01*
Y4684D02*
Y4696D01*
Y4731D02*
Y4770D01*
Y4798D02*
Y4849D01*
Y4852D02*
Y4896D01*
Y4911D02*
Y4950D01*
Y4970D02*
Y5017D01*
Y5048D02*
Y5107D01*
Y5122D02*
Y5150D01*
Y5173D02*
Y5201D01*
Y5220D02*
Y5267D01*
X6181Y4473D02*
Y4508D01*
Y4540D02*
Y4575D01*
Y4622D02*
Y4641D01*
Y4684D02*
Y4696D01*
Y4731D02*
Y4770D01*
Y4798D02*
Y4849D01*
Y4852D02*
Y4896D01*
Y4911D02*
Y4950D01*
Y4970D02*
Y5017D01*
Y5048D02*
Y5107D01*
Y5122D02*
Y5150D01*
Y5173D02*
Y5201D01*
Y5220D02*
Y5267D01*
X6182Y4473D02*
Y4508D01*
Y4540D02*
Y4575D01*
Y4622D02*
Y4641D01*
Y4684D02*
Y4696D01*
Y4731D02*
Y4770D01*
Y4798D02*
Y4849D01*
Y4852D02*
Y4896D01*
Y4911D02*
Y4950D01*
Y4970D02*
Y5017D01*
Y5048D02*
Y5107D01*
Y5122D02*
Y5150D01*
Y5173D02*
Y5201D01*
Y5220D02*
Y5267D01*
X6183Y4473D02*
Y4508D01*
Y4540D02*
Y4575D01*
Y4622D02*
Y4641D01*
Y4684D02*
Y4696D01*
Y4731D02*
Y4770D01*
Y4798D02*
Y4849D01*
Y4852D02*
Y4896D01*
Y4911D02*
Y4950D01*
Y4970D02*
Y5017D01*
Y5048D02*
Y5107D01*
Y5122D02*
Y5150D01*
Y5173D02*
Y5201D01*
Y5220D02*
Y5267D01*
X6184Y4473D02*
Y4508D01*
Y4540D02*
Y4575D01*
Y4622D02*
Y4641D01*
Y4684D02*
Y4696D01*
Y4731D02*
Y4770D01*
Y4798D02*
Y4849D01*
Y4852D02*
Y4896D01*
Y4911D02*
Y4950D01*
Y4970D02*
Y5017D01*
Y5048D02*
Y5107D01*
Y5122D02*
Y5150D01*
Y5173D02*
Y5201D01*
Y5220D02*
Y5267D01*
X6185Y4473D02*
Y4508D01*
Y4540D02*
Y4575D01*
Y4622D02*
Y4641D01*
Y4684D02*
Y4696D01*
Y4731D02*
Y4770D01*
Y4798D02*
Y4849D01*
Y4852D02*
Y4896D01*
Y4911D02*
Y4950D01*
Y4970D02*
Y5017D01*
Y5048D02*
Y5107D01*
Y5122D02*
Y5150D01*
Y5173D02*
Y5201D01*
Y5220D02*
Y5267D01*
X6186Y4473D02*
Y4508D01*
Y4540D02*
Y4575D01*
Y4622D02*
Y4641D01*
Y4684D02*
Y4696D01*
Y4731D02*
Y4770D01*
Y4798D02*
Y4849D01*
Y4852D02*
Y4896D01*
Y4911D02*
Y4950D01*
Y4970D02*
Y5017D01*
Y5048D02*
Y5107D01*
Y5122D02*
Y5150D01*
Y5173D02*
Y5201D01*
Y5220D02*
Y5267D01*
X6187Y4473D02*
Y4508D01*
Y4540D02*
Y4575D01*
Y4622D02*
Y4641D01*
Y4684D02*
Y4696D01*
Y4731D02*
Y4770D01*
Y4798D02*
Y4849D01*
Y4852D02*
Y4896D01*
Y4911D02*
Y4950D01*
Y4970D02*
Y5017D01*
Y5048D02*
Y5107D01*
Y5122D02*
Y5150D01*
Y5173D02*
Y5201D01*
Y5220D02*
Y5267D01*
X6188Y4473D02*
Y4508D01*
Y4540D02*
Y4575D01*
Y4622D02*
Y4665D01*
Y4684D02*
Y4696D01*
Y4727D02*
Y4743D01*
Y4759D02*
Y4782D01*
Y4798D02*
Y4825D01*
Y4829D02*
Y4849D01*
Y4864D02*
Y4880D01*
Y4911D02*
Y4935D01*
Y4962D02*
Y4997D01*
Y5001D02*
Y5029D01*
Y5048D02*
Y5056D01*
Y5083D02*
Y5107D01*
Y5122D02*
Y5150D01*
Y5158D02*
Y5177D01*
Y5189D02*
Y5212D01*
Y5220D02*
Y5240D01*
Y5259D02*
Y5267D01*
X6189Y4473D02*
Y4508D01*
Y4540D02*
Y4575D01*
Y4622D02*
Y4665D01*
Y4684D02*
Y4696D01*
Y4727D02*
Y4743D01*
Y4759D02*
Y4782D01*
Y4798D02*
Y4825D01*
Y4829D02*
Y4849D01*
Y4864D02*
Y4880D01*
Y4911D02*
Y4935D01*
Y4962D02*
Y4997D01*
Y5001D02*
Y5029D01*
Y5048D02*
Y5056D01*
Y5083D02*
Y5107D01*
Y5122D02*
Y5150D01*
Y5158D02*
Y5177D01*
Y5189D02*
Y5212D01*
Y5220D02*
Y5240D01*
Y5259D02*
Y5267D01*
X6190Y4473D02*
Y4508D01*
Y4540D02*
Y4575D01*
Y4622D02*
Y4665D01*
Y4684D02*
Y4696D01*
Y4727D02*
Y4743D01*
Y4759D02*
Y4782D01*
Y4798D02*
Y4825D01*
Y4829D02*
Y4849D01*
Y4864D02*
Y4880D01*
Y4911D02*
Y4935D01*
Y4962D02*
Y4997D01*
Y5001D02*
Y5029D01*
Y5048D02*
Y5056D01*
Y5083D02*
Y5107D01*
Y5122D02*
Y5150D01*
Y5158D02*
Y5177D01*
Y5189D02*
Y5212D01*
Y5220D02*
Y5240D01*
Y5259D02*
Y5267D01*
X6191Y4473D02*
Y4508D01*
Y4540D02*
Y4575D01*
Y4622D02*
Y4665D01*
Y4684D02*
Y4696D01*
Y4727D02*
Y4743D01*
Y4759D02*
Y4782D01*
Y4798D02*
Y4825D01*
Y4829D02*
Y4849D01*
Y4864D02*
Y4880D01*
Y4911D02*
Y4935D01*
Y4962D02*
Y4997D01*
Y5001D02*
Y5029D01*
Y5048D02*
Y5056D01*
Y5083D02*
Y5107D01*
Y5122D02*
Y5150D01*
Y5158D02*
Y5177D01*
Y5189D02*
Y5212D01*
Y5220D02*
Y5240D01*
Y5259D02*
Y5267D01*
X6192Y4473D02*
Y4508D01*
Y4540D02*
Y4575D01*
Y4622D02*
Y4665D01*
Y4684D02*
Y4696D01*
Y4727D02*
Y4743D01*
Y4759D02*
Y4782D01*
Y4798D02*
Y4825D01*
Y4829D02*
Y4849D01*
Y4864D02*
Y4880D01*
Y4911D02*
Y4935D01*
Y4962D02*
Y4997D01*
Y5001D02*
Y5029D01*
Y5048D02*
Y5056D01*
Y5083D02*
Y5107D01*
Y5122D02*
Y5150D01*
Y5158D02*
Y5177D01*
Y5189D02*
Y5212D01*
Y5220D02*
Y5240D01*
Y5259D02*
Y5267D01*
X6193Y4473D02*
Y4508D01*
Y4540D02*
Y4575D01*
Y4622D02*
Y4665D01*
Y4684D02*
Y4696D01*
Y4727D02*
Y4743D01*
Y4759D02*
Y4782D01*
Y4798D02*
Y4825D01*
Y4829D02*
Y4849D01*
Y4864D02*
Y4880D01*
Y4911D02*
Y4935D01*
Y4962D02*
Y4997D01*
Y5001D02*
Y5029D01*
Y5048D02*
Y5056D01*
Y5083D02*
Y5107D01*
Y5122D02*
Y5150D01*
Y5158D02*
Y5177D01*
Y5189D02*
Y5212D01*
Y5220D02*
Y5240D01*
Y5259D02*
Y5267D01*
X6194Y4473D02*
Y4508D01*
Y4540D02*
Y4575D01*
Y4622D02*
Y4665D01*
Y4684D02*
Y4696D01*
Y4727D02*
Y4743D01*
Y4759D02*
Y4782D01*
Y4798D02*
Y4825D01*
Y4829D02*
Y4849D01*
Y4864D02*
Y4880D01*
Y4911D02*
Y4935D01*
Y4962D02*
Y4997D01*
Y5001D02*
Y5029D01*
Y5048D02*
Y5056D01*
Y5083D02*
Y5107D01*
Y5122D02*
Y5150D01*
Y5158D02*
Y5177D01*
Y5189D02*
Y5212D01*
Y5220D02*
Y5240D01*
Y5259D02*
Y5267D01*
X6195Y4473D02*
Y4508D01*
Y4540D02*
Y4575D01*
Y4622D02*
Y4665D01*
Y4684D02*
Y4696D01*
Y4727D02*
Y4743D01*
Y4759D02*
Y4782D01*
Y4798D02*
Y4825D01*
Y4829D02*
Y4849D01*
Y4864D02*
Y4880D01*
Y4911D02*
Y4935D01*
Y4962D02*
Y4997D01*
Y5001D02*
Y5029D01*
Y5048D02*
Y5056D01*
Y5083D02*
Y5107D01*
Y5122D02*
Y5150D01*
Y5158D02*
Y5177D01*
Y5189D02*
Y5212D01*
Y5220D02*
Y5240D01*
Y5259D02*
Y5267D01*
X6196Y4473D02*
Y4508D01*
Y4540D02*
Y4575D01*
Y4622D02*
Y4665D01*
Y4684D02*
Y4696D01*
Y4727D02*
Y4743D01*
Y4759D02*
Y4782D01*
Y4798D02*
Y4825D01*
Y4829D02*
Y4849D01*
Y4864D02*
Y4880D01*
Y4911D02*
Y4935D01*
Y4962D02*
Y4997D01*
Y5001D02*
Y5029D01*
Y5048D02*
Y5056D01*
Y5083D02*
Y5107D01*
Y5122D02*
Y5150D01*
Y5158D02*
Y5177D01*
Y5189D02*
Y5212D01*
Y5220D02*
Y5240D01*
Y5259D02*
Y5267D01*
X6197Y4473D02*
Y4508D01*
Y4540D02*
Y4575D01*
Y4622D02*
Y4665D01*
Y4684D02*
Y4696D01*
Y4727D02*
Y4731D01*
Y4770D02*
Y4782D01*
Y4794D02*
Y4802D01*
Y4864D02*
Y4880D01*
Y4911D02*
Y4919D01*
Y4962D02*
Y4974D01*
Y5005D02*
Y5029D01*
Y5048D02*
Y5056D01*
Y5083D02*
Y5107D01*
Y5122D02*
Y5150D01*
Y5154D02*
Y5173D01*
Y5220D02*
Y5240D01*
X6198Y4473D02*
Y4508D01*
Y4540D02*
Y4575D01*
Y4622D02*
Y4665D01*
Y4684D02*
Y4696D01*
Y4727D02*
Y4731D01*
Y4770D02*
Y4782D01*
Y4794D02*
Y4802D01*
Y4864D02*
Y4880D01*
Y4911D02*
Y4919D01*
Y4962D02*
Y4974D01*
Y5005D02*
Y5029D01*
Y5048D02*
Y5056D01*
Y5083D02*
Y5107D01*
Y5122D02*
Y5150D01*
Y5154D02*
Y5173D01*
Y5220D02*
Y5240D01*
X6199Y4473D02*
Y4508D01*
Y4540D02*
Y4575D01*
Y4622D02*
Y4665D01*
Y4684D02*
Y4696D01*
Y4727D02*
Y4731D01*
Y4770D02*
Y4782D01*
Y4794D02*
Y4802D01*
Y4864D02*
Y4880D01*
Y4911D02*
Y4919D01*
Y4962D02*
Y4974D01*
Y5005D02*
Y5029D01*
Y5048D02*
Y5056D01*
Y5083D02*
Y5107D01*
Y5122D02*
Y5150D01*
Y5154D02*
Y5173D01*
Y5220D02*
Y5240D01*
X6200Y4473D02*
Y4508D01*
Y4540D02*
Y4575D01*
Y4622D02*
Y4665D01*
Y4684D02*
Y4696D01*
Y4727D02*
Y4731D01*
Y4770D02*
Y4782D01*
Y4794D02*
Y4802D01*
Y4864D02*
Y4880D01*
Y4911D02*
Y4919D01*
Y4962D02*
Y4974D01*
Y5005D02*
Y5029D01*
Y5048D02*
Y5056D01*
Y5083D02*
Y5107D01*
Y5122D02*
Y5150D01*
Y5154D02*
Y5173D01*
Y5220D02*
Y5240D01*
X6201Y4473D02*
Y4508D01*
Y4540D02*
Y4575D01*
Y4622D02*
Y4665D01*
Y4684D02*
Y4696D01*
Y4727D02*
Y4731D01*
Y4770D02*
Y4782D01*
Y4794D02*
Y4802D01*
Y4864D02*
Y4880D01*
Y4911D02*
Y4919D01*
Y4962D02*
Y4974D01*
Y5005D02*
Y5029D01*
Y5048D02*
Y5056D01*
Y5083D02*
Y5107D01*
Y5122D02*
Y5150D01*
Y5154D02*
Y5173D01*
Y5220D02*
Y5240D01*
X6202Y4473D02*
Y4508D01*
Y4540D02*
Y4575D01*
Y4622D02*
Y4665D01*
Y4684D02*
Y4696D01*
Y4727D02*
Y4731D01*
Y4770D02*
Y4782D01*
Y4794D02*
Y4802D01*
Y4864D02*
Y4880D01*
Y4911D02*
Y4919D01*
Y4962D02*
Y4974D01*
Y5005D02*
Y5029D01*
Y5048D02*
Y5056D01*
Y5083D02*
Y5107D01*
Y5122D02*
Y5150D01*
Y5154D02*
Y5173D01*
Y5220D02*
Y5240D01*
X6203Y4473D02*
Y4508D01*
Y4540D02*
Y4575D01*
Y4622D02*
Y4665D01*
Y4684D02*
Y4696D01*
Y4727D02*
Y4731D01*
Y4770D02*
Y4782D01*
Y4794D02*
Y4802D01*
Y4864D02*
Y4880D01*
Y4911D02*
Y4919D01*
Y4962D02*
Y4974D01*
Y5005D02*
Y5029D01*
Y5048D02*
Y5056D01*
Y5083D02*
Y5107D01*
Y5122D02*
Y5150D01*
Y5154D02*
Y5173D01*
Y5220D02*
Y5240D01*
X6204Y4473D02*
Y4508D01*
Y4540D02*
Y4575D01*
Y4622D02*
Y4665D01*
Y4684D02*
Y4696D01*
Y4727D02*
Y4731D01*
Y4770D02*
Y4782D01*
Y4794D02*
Y4802D01*
Y4864D02*
Y4880D01*
Y4911D02*
Y4919D01*
Y4962D02*
Y4974D01*
Y5005D02*
Y5029D01*
Y5048D02*
Y5056D01*
Y5083D02*
Y5107D01*
Y5122D02*
Y5150D01*
Y5154D02*
Y5173D01*
Y5220D02*
Y5240D01*
X6205Y4473D02*
Y4508D01*
Y4540D02*
Y4575D01*
Y4622D02*
Y4665D01*
Y4684D02*
Y4696D01*
Y4727D02*
Y4731D01*
Y4770D02*
Y4782D01*
Y4794D02*
Y4802D01*
Y4864D02*
Y4880D01*
Y4911D02*
Y4919D01*
Y4962D02*
Y4974D01*
Y5005D02*
Y5029D01*
Y5048D02*
Y5056D01*
Y5083D02*
Y5107D01*
Y5122D02*
Y5150D01*
Y5154D02*
Y5173D01*
Y5220D02*
Y5240D01*
X6206Y4473D02*
Y4508D01*
Y4540D02*
Y4575D01*
Y4622D02*
Y4665D01*
Y4684D02*
Y4696D01*
Y4727D02*
Y4731D01*
Y4770D02*
Y4782D01*
Y4794D02*
Y4802D01*
Y4864D02*
Y4880D01*
Y4911D02*
Y4919D01*
Y4962D02*
Y4974D01*
Y5005D02*
Y5029D01*
Y5048D02*
Y5056D01*
Y5083D02*
Y5107D01*
Y5122D02*
Y5150D01*
Y5154D02*
Y5173D01*
Y5220D02*
Y5240D01*
X6207Y4473D02*
Y4508D01*
Y4540D02*
Y4575D01*
Y4622D02*
Y4665D01*
Y4684D02*
Y4696D01*
Y4727D02*
Y4731D01*
Y4770D02*
Y4782D01*
Y4794D02*
Y4802D01*
Y4864D02*
Y4880D01*
Y4911D02*
Y4919D01*
Y4962D02*
Y4974D01*
Y5005D02*
Y5029D01*
Y5048D02*
Y5056D01*
Y5083D02*
Y5107D01*
Y5122D02*
Y5150D01*
Y5154D02*
Y5173D01*
Y5220D02*
Y5240D01*
X6208Y4473D02*
Y4508D01*
Y4540D02*
Y4575D01*
Y4622D02*
Y4665D01*
Y4684D02*
Y4696D01*
Y4727D02*
Y4731D01*
Y4770D02*
Y4782D01*
Y4794D02*
Y4802D01*
Y4864D02*
Y4880D01*
Y4911D02*
Y4919D01*
Y4962D02*
Y4974D01*
Y5005D02*
Y5029D01*
Y5048D02*
Y5056D01*
Y5083D02*
Y5107D01*
Y5122D02*
Y5150D01*
Y5154D02*
Y5173D01*
Y5220D02*
Y5240D01*
X6209Y4473D02*
Y4508D01*
Y4540D02*
Y4575D01*
Y4622D02*
Y4641D01*
Y4684D02*
Y4696D01*
Y4716D02*
Y4782D01*
Y4794D02*
Y4802D01*
Y4864D02*
Y4880D01*
Y4911D02*
Y4919D01*
Y4962D02*
Y4974D01*
Y5005D02*
Y5029D01*
Y5048D02*
Y5056D01*
Y5083D02*
Y5107D01*
Y5122D02*
Y5150D01*
Y5154D02*
Y5173D01*
Y5220D02*
Y5259D01*
X6210Y4473D02*
Y4508D01*
Y4540D02*
Y4575D01*
Y4622D02*
Y4641D01*
Y4684D02*
Y4696D01*
Y4716D02*
Y4782D01*
Y4794D02*
Y4802D01*
Y4864D02*
Y4880D01*
Y4911D02*
Y4919D01*
Y4962D02*
Y4974D01*
Y5005D02*
Y5029D01*
Y5048D02*
Y5056D01*
Y5083D02*
Y5107D01*
Y5122D02*
Y5150D01*
Y5154D02*
Y5173D01*
Y5220D02*
Y5259D01*
X6211Y4473D02*
Y4508D01*
Y4540D02*
Y4575D01*
Y4622D02*
Y4641D01*
Y4684D02*
Y4696D01*
Y4716D02*
Y4782D01*
Y4794D02*
Y4802D01*
Y4864D02*
Y4880D01*
Y4911D02*
Y4919D01*
Y4962D02*
Y4974D01*
Y5005D02*
Y5029D01*
Y5048D02*
Y5056D01*
Y5083D02*
Y5107D01*
Y5122D02*
Y5150D01*
Y5154D02*
Y5173D01*
Y5220D02*
Y5259D01*
X6212Y4473D02*
Y4508D01*
Y4540D02*
Y4575D01*
Y4622D02*
Y4641D01*
Y4684D02*
Y4696D01*
Y4716D02*
Y4782D01*
Y4794D02*
Y4802D01*
Y4864D02*
Y4880D01*
Y4911D02*
Y4919D01*
Y4962D02*
Y4974D01*
Y5005D02*
Y5029D01*
Y5048D02*
Y5056D01*
Y5083D02*
Y5107D01*
Y5122D02*
Y5150D01*
Y5154D02*
Y5173D01*
Y5220D02*
Y5259D01*
X6213Y4473D02*
Y4508D01*
Y4540D02*
Y4575D01*
Y4622D02*
Y4641D01*
Y4684D02*
Y4696D01*
Y4716D02*
Y4782D01*
Y4794D02*
Y4802D01*
Y4864D02*
Y4880D01*
Y4911D02*
Y4919D01*
Y4962D02*
Y4974D01*
Y5005D02*
Y5029D01*
Y5048D02*
Y5056D01*
Y5083D02*
Y5107D01*
Y5122D02*
Y5150D01*
Y5154D02*
Y5173D01*
Y5220D02*
Y5259D01*
X6214Y4473D02*
Y4508D01*
Y4540D02*
Y4575D01*
Y4622D02*
Y4641D01*
Y4684D02*
Y4696D01*
Y4716D02*
Y4782D01*
Y4794D02*
Y4802D01*
Y4864D02*
Y4880D01*
Y4911D02*
Y4919D01*
Y4962D02*
Y4974D01*
Y5005D02*
Y5029D01*
Y5048D02*
Y5056D01*
Y5083D02*
Y5107D01*
Y5122D02*
Y5150D01*
Y5154D02*
Y5173D01*
Y5220D02*
Y5259D01*
X6215Y4473D02*
Y4508D01*
Y4540D02*
Y4575D01*
Y4622D02*
Y4641D01*
Y4684D02*
Y4696D01*
Y4716D02*
Y4782D01*
Y4794D02*
Y4802D01*
Y4864D02*
Y4880D01*
Y4911D02*
Y4919D01*
Y4962D02*
Y4974D01*
Y5005D02*
Y5029D01*
Y5048D02*
Y5056D01*
Y5083D02*
Y5107D01*
Y5122D02*
Y5150D01*
Y5154D02*
Y5173D01*
Y5220D02*
Y5259D01*
X6216Y4473D02*
Y4508D01*
Y4540D02*
Y4575D01*
Y4622D02*
Y4641D01*
Y4684D02*
Y4696D01*
Y4716D02*
Y4782D01*
Y4794D02*
Y4802D01*
Y4864D02*
Y4880D01*
Y4911D02*
Y4919D01*
Y4962D02*
Y4974D01*
Y5005D02*
Y5029D01*
Y5048D02*
Y5056D01*
Y5083D02*
Y5107D01*
Y5122D02*
Y5150D01*
Y5154D02*
Y5173D01*
Y5220D02*
Y5259D01*
X6217Y4473D02*
Y4508D01*
Y4540D02*
Y4575D01*
Y4622D02*
Y4641D01*
Y4684D02*
Y4696D01*
Y4716D02*
Y4782D01*
Y4794D02*
Y4802D01*
Y4864D02*
Y4880D01*
Y4911D02*
Y4919D01*
Y4962D02*
Y4974D01*
Y5005D02*
Y5029D01*
Y5048D02*
Y5056D01*
Y5083D02*
Y5107D01*
Y5122D02*
Y5150D01*
Y5154D02*
Y5173D01*
Y5220D02*
Y5259D01*
X6218Y4473D02*
Y4508D01*
Y4540D02*
Y4575D01*
Y4622D02*
Y4641D01*
Y4684D02*
Y4696D01*
Y4716D02*
Y4782D01*
Y4794D02*
Y4802D01*
Y4864D02*
Y4880D01*
Y4911D02*
Y4919D01*
Y4962D02*
Y4974D01*
Y5005D02*
Y5029D01*
Y5048D02*
Y5056D01*
Y5083D02*
Y5107D01*
Y5122D02*
Y5150D01*
Y5154D02*
Y5173D01*
Y5220D02*
Y5259D01*
X6219Y4473D02*
Y4508D01*
Y4540D02*
Y4575D01*
Y4622D02*
Y4641D01*
Y4684D02*
Y4696D01*
Y4716D02*
Y4782D01*
Y4794D02*
Y4802D01*
Y4864D02*
Y4880D01*
Y4911D02*
Y4919D01*
Y4962D02*
Y4974D01*
Y5005D02*
Y5029D01*
Y5048D02*
Y5056D01*
Y5083D02*
Y5107D01*
Y5122D02*
Y5150D01*
Y5154D02*
Y5173D01*
Y5220D02*
Y5259D01*
X6220Y4473D02*
Y4508D01*
Y4540D02*
Y4575D01*
Y4622D02*
Y4641D01*
Y4684D02*
Y4696D01*
Y4716D02*
Y4782D01*
Y4794D02*
Y4802D01*
Y4864D02*
Y4880D01*
Y4911D02*
Y4919D01*
Y4962D02*
Y4974D01*
Y5005D02*
Y5029D01*
Y5048D02*
Y5056D01*
Y5083D02*
Y5107D01*
Y5122D02*
Y5150D01*
Y5154D02*
Y5173D01*
Y5220D02*
Y5259D01*
X6221Y4473D02*
Y4508D01*
Y4540D02*
Y4575D01*
Y4622D02*
Y4641D01*
Y4684D02*
Y4696D01*
Y4716D02*
Y4782D01*
Y4794D02*
Y4802D01*
Y4864D02*
Y4880D01*
Y4911D02*
Y4919D01*
Y4962D02*
Y4974D01*
Y5005D02*
Y5029D01*
Y5048D02*
Y5056D01*
Y5083D02*
Y5107D01*
Y5122D02*
Y5150D01*
Y5154D02*
Y5173D01*
Y5220D02*
Y5259D01*
X6222Y4473D02*
Y4508D01*
Y4540D02*
Y4575D01*
Y4622D02*
Y4641D01*
Y4684D02*
Y4696D01*
Y4716D02*
Y4782D01*
Y4794D02*
Y4802D01*
Y4864D02*
Y4880D01*
Y4911D02*
Y4919D01*
Y4962D02*
Y4974D01*
Y5005D02*
Y5029D01*
Y5048D02*
Y5056D01*
Y5083D02*
Y5107D01*
Y5122D02*
Y5150D01*
Y5154D02*
Y5173D01*
Y5220D02*
Y5259D01*
X6223Y4473D02*
Y4508D01*
Y4540D02*
Y4575D01*
Y4622D02*
Y4641D01*
Y4684D02*
Y4696D01*
Y4716D02*
Y4782D01*
Y4794D02*
Y4802D01*
Y4864D02*
Y4880D01*
Y4911D02*
Y4919D01*
Y4962D02*
Y4974D01*
Y5005D02*
Y5029D01*
Y5048D02*
Y5056D01*
Y5083D02*
Y5107D01*
Y5122D02*
Y5150D01*
Y5154D02*
Y5173D01*
Y5220D02*
Y5259D01*
X6224Y4473D02*
Y4508D01*
Y4540D02*
Y4575D01*
Y4622D02*
Y4641D01*
Y4684D02*
Y4696D01*
Y4716D02*
Y4782D01*
Y4794D02*
Y4802D01*
Y4864D02*
Y4880D01*
Y4911D02*
Y4919D01*
Y4962D02*
Y4974D01*
Y5005D02*
Y5029D01*
Y5048D02*
Y5056D01*
Y5083D02*
Y5107D01*
Y5122D02*
Y5150D01*
Y5154D02*
Y5173D01*
Y5220D02*
Y5259D01*
X6225Y4473D02*
Y4508D01*
Y4540D02*
Y4575D01*
Y4622D02*
Y4641D01*
Y4684D02*
Y4696D01*
Y4716D02*
Y4782D01*
Y4794D02*
Y4802D01*
Y4864D02*
Y4880D01*
Y4911D02*
Y4919D01*
Y4962D02*
Y4974D01*
Y5005D02*
Y5029D01*
Y5048D02*
Y5056D01*
Y5083D02*
Y5107D01*
Y5122D02*
Y5150D01*
Y5154D02*
Y5173D01*
Y5220D02*
Y5259D01*
X6226Y4473D02*
Y4508D01*
Y4540D02*
Y4575D01*
Y4622D02*
Y4641D01*
Y4684D02*
Y4696D01*
Y4716D02*
Y4731D01*
Y4794D02*
Y4802D01*
Y4864D02*
Y4880D01*
Y4911D02*
Y4919D01*
Y4962D02*
Y4974D01*
Y5005D02*
Y5029D01*
Y5048D02*
Y5056D01*
Y5083D02*
Y5107D01*
Y5122D02*
Y5150D01*
Y5154D02*
Y5173D01*
Y5240D02*
Y5267D01*
X6227Y4473D02*
Y4508D01*
Y4540D02*
Y4575D01*
Y4622D02*
Y4641D01*
Y4684D02*
Y4696D01*
Y4716D02*
Y4731D01*
Y4794D02*
Y4802D01*
Y4864D02*
Y4880D01*
Y4911D02*
Y4919D01*
Y4962D02*
Y4974D01*
Y5005D02*
Y5029D01*
Y5048D02*
Y5056D01*
Y5083D02*
Y5107D01*
Y5122D02*
Y5150D01*
Y5154D02*
Y5173D01*
Y5240D02*
Y5267D01*
X6228Y4473D02*
Y4508D01*
Y4540D02*
Y4575D01*
Y4622D02*
Y4641D01*
Y4684D02*
Y4696D01*
Y4716D02*
Y4731D01*
Y4794D02*
Y4802D01*
Y4864D02*
Y4880D01*
Y4911D02*
Y4919D01*
Y4962D02*
Y4974D01*
Y5005D02*
Y5029D01*
Y5048D02*
Y5056D01*
Y5083D02*
Y5107D01*
Y5122D02*
Y5150D01*
Y5154D02*
Y5173D01*
Y5240D02*
Y5267D01*
X6229Y4473D02*
Y4508D01*
Y4540D02*
Y4575D01*
Y4622D02*
Y4641D01*
Y4684D02*
Y4696D01*
Y4716D02*
Y4731D01*
Y4794D02*
Y4802D01*
Y4864D02*
Y4880D01*
Y4911D02*
Y4919D01*
Y4962D02*
Y4974D01*
Y5005D02*
Y5029D01*
Y5048D02*
Y5056D01*
Y5083D02*
Y5107D01*
Y5122D02*
Y5150D01*
Y5154D02*
Y5173D01*
Y5240D02*
Y5267D01*
X6230Y4473D02*
Y4508D01*
Y4540D02*
Y4575D01*
Y4622D02*
Y4641D01*
Y4684D02*
Y4696D01*
Y4716D02*
Y4731D01*
Y4794D02*
Y4802D01*
Y4864D02*
Y4880D01*
Y4911D02*
Y4919D01*
Y4962D02*
Y4974D01*
Y5005D02*
Y5029D01*
Y5048D02*
Y5056D01*
Y5083D02*
Y5107D01*
Y5122D02*
Y5150D01*
Y5154D02*
Y5173D01*
Y5240D02*
Y5267D01*
X6231Y4473D02*
Y4508D01*
Y4540D02*
Y4575D01*
Y4622D02*
Y4641D01*
Y4684D02*
Y4696D01*
Y4716D02*
Y4731D01*
Y4794D02*
Y4802D01*
Y4864D02*
Y4880D01*
Y4911D02*
Y4919D01*
Y4962D02*
Y4974D01*
Y5005D02*
Y5029D01*
Y5048D02*
Y5056D01*
Y5083D02*
Y5107D01*
Y5122D02*
Y5150D01*
Y5154D02*
Y5173D01*
Y5240D02*
Y5267D01*
X6232Y4473D02*
Y4508D01*
Y4540D02*
Y4575D01*
Y4622D02*
Y4641D01*
Y4684D02*
Y4696D01*
Y4716D02*
Y4731D01*
Y4794D02*
Y4802D01*
Y4864D02*
Y4880D01*
Y4911D02*
Y4919D01*
Y4962D02*
Y4974D01*
Y5005D02*
Y5029D01*
Y5048D02*
Y5056D01*
Y5083D02*
Y5107D01*
Y5122D02*
Y5150D01*
Y5154D02*
Y5173D01*
Y5240D02*
Y5267D01*
X6233Y4473D02*
Y4508D01*
Y4540D02*
Y4575D01*
Y4622D02*
Y4641D01*
Y4684D02*
Y4696D01*
Y4716D02*
Y4731D01*
Y4794D02*
Y4802D01*
Y4864D02*
Y4880D01*
Y4911D02*
Y4919D01*
Y4962D02*
Y4974D01*
Y5005D02*
Y5029D01*
Y5048D02*
Y5056D01*
Y5083D02*
Y5107D01*
Y5122D02*
Y5150D01*
Y5154D02*
Y5173D01*
Y5240D02*
Y5267D01*
X6234Y4473D02*
Y4508D01*
Y4540D02*
Y4575D01*
Y4622D02*
Y4641D01*
Y4684D02*
Y4696D01*
Y4716D02*
Y4731D01*
Y4794D02*
Y4802D01*
Y4864D02*
Y4880D01*
Y4911D02*
Y4919D01*
Y4962D02*
Y4974D01*
Y5005D02*
Y5029D01*
Y5048D02*
Y5056D01*
Y5083D02*
Y5107D01*
Y5122D02*
Y5150D01*
Y5154D02*
Y5173D01*
Y5240D02*
Y5267D01*
X6235Y4473D02*
Y4508D01*
Y4540D02*
Y4575D01*
Y4622D02*
Y4641D01*
Y4684D02*
Y4696D01*
Y4716D02*
Y4731D01*
Y4794D02*
Y4802D01*
Y4864D02*
Y4880D01*
Y4911D02*
Y4919D01*
Y4962D02*
Y4974D01*
Y5005D02*
Y5029D01*
Y5048D02*
Y5056D01*
Y5083D02*
Y5107D01*
Y5122D02*
Y5150D01*
Y5154D02*
Y5173D01*
Y5240D02*
Y5267D01*
X6236Y4473D02*
Y4508D01*
Y4540D02*
Y4575D01*
Y4622D02*
Y4641D01*
Y4684D02*
Y4696D01*
Y4716D02*
Y4731D01*
Y4794D02*
Y4802D01*
Y4864D02*
Y4880D01*
Y4911D02*
Y4919D01*
Y4962D02*
Y4974D01*
Y5005D02*
Y5029D01*
Y5048D02*
Y5056D01*
Y5083D02*
Y5107D01*
Y5122D02*
Y5150D01*
Y5154D02*
Y5173D01*
Y5240D02*
Y5267D01*
X6237Y4473D02*
Y4508D01*
Y4540D02*
Y4575D01*
Y4622D02*
Y4641D01*
Y4684D02*
Y4696D01*
Y4716D02*
Y4731D01*
Y4794D02*
Y4802D01*
Y4864D02*
Y4880D01*
Y4911D02*
Y4919D01*
Y4962D02*
Y4974D01*
Y5005D02*
Y5029D01*
Y5048D02*
Y5056D01*
Y5083D02*
Y5107D01*
Y5122D02*
Y5150D01*
Y5154D02*
Y5173D01*
Y5240D02*
Y5267D01*
X6238Y4473D02*
Y4508D01*
Y4540D02*
Y4575D01*
Y4622D02*
Y4641D01*
Y4684D02*
Y4696D01*
Y4716D02*
Y4731D01*
Y4794D02*
Y4802D01*
Y4864D02*
Y4880D01*
Y4911D02*
Y4919D01*
Y4962D02*
Y4974D01*
Y5005D02*
Y5029D01*
Y5048D02*
Y5056D01*
Y5083D02*
Y5107D01*
Y5122D02*
Y5150D01*
Y5154D02*
Y5173D01*
Y5240D02*
Y5267D01*
X6239Y4473D02*
Y4508D01*
Y4540D02*
Y4575D01*
Y4622D02*
Y4641D01*
Y4684D02*
Y4696D01*
Y4727D02*
Y4731D01*
Y4794D02*
Y4802D01*
Y4864D02*
Y4880D01*
Y4911D02*
Y4919D01*
Y4962D02*
Y4974D01*
Y5005D02*
Y5029D01*
Y5048D02*
Y5056D01*
Y5083D02*
Y5107D01*
Y5122D02*
Y5150D01*
Y5154D02*
Y5173D01*
Y5255D02*
Y5267D01*
X6240Y4473D02*
Y4508D01*
Y4540D02*
Y4575D01*
Y4622D02*
Y4641D01*
Y4684D02*
Y4696D01*
Y4727D02*
Y4731D01*
Y4794D02*
Y4802D01*
Y4864D02*
Y4880D01*
Y4911D02*
Y4919D01*
Y4962D02*
Y4974D01*
Y5005D02*
Y5029D01*
Y5048D02*
Y5056D01*
Y5083D02*
Y5107D01*
Y5122D02*
Y5150D01*
Y5154D02*
Y5173D01*
Y5255D02*
Y5267D01*
X6241Y4473D02*
Y4508D01*
Y4540D02*
Y4575D01*
Y4622D02*
Y4641D01*
Y4684D02*
Y4696D01*
Y4727D02*
Y4731D01*
Y4794D02*
Y4802D01*
Y4864D02*
Y4880D01*
Y4911D02*
Y4919D01*
Y4962D02*
Y4974D01*
Y5005D02*
Y5029D01*
Y5048D02*
Y5056D01*
Y5083D02*
Y5107D01*
Y5122D02*
Y5150D01*
Y5154D02*
Y5173D01*
Y5255D02*
Y5267D01*
X6242Y4473D02*
Y4508D01*
Y4540D02*
Y4575D01*
Y4622D02*
Y4641D01*
Y4684D02*
Y4696D01*
Y4727D02*
Y4731D01*
Y4794D02*
Y4802D01*
Y4864D02*
Y4880D01*
Y4911D02*
Y4919D01*
Y4962D02*
Y4974D01*
Y5005D02*
Y5029D01*
Y5048D02*
Y5056D01*
Y5083D02*
Y5107D01*
Y5122D02*
Y5150D01*
Y5154D02*
Y5173D01*
Y5255D02*
Y5267D01*
X6243Y4473D02*
Y4508D01*
Y4540D02*
Y4575D01*
Y4622D02*
Y4641D01*
Y4684D02*
Y4696D01*
Y4727D02*
Y4731D01*
Y4794D02*
Y4802D01*
Y4864D02*
Y4880D01*
Y4911D02*
Y4919D01*
Y4962D02*
Y4974D01*
Y5005D02*
Y5029D01*
Y5048D02*
Y5056D01*
Y5083D02*
Y5107D01*
Y5122D02*
Y5150D01*
Y5154D02*
Y5173D01*
Y5255D02*
Y5267D01*
X6244Y4473D02*
Y4508D01*
Y4540D02*
Y4575D01*
Y4622D02*
Y4641D01*
Y4684D02*
Y4696D01*
Y4727D02*
Y4731D01*
Y4794D02*
Y4802D01*
Y4864D02*
Y4880D01*
Y4911D02*
Y4919D01*
Y4962D02*
Y4974D01*
Y5005D02*
Y5029D01*
Y5048D02*
Y5056D01*
Y5083D02*
Y5107D01*
Y5122D02*
Y5150D01*
Y5154D02*
Y5173D01*
Y5255D02*
Y5267D01*
X6245Y4473D02*
Y4508D01*
Y4540D02*
Y4575D01*
Y4622D02*
Y4641D01*
Y4684D02*
Y4696D01*
Y4727D02*
Y4731D01*
Y4794D02*
Y4802D01*
Y4864D02*
Y4880D01*
Y4911D02*
Y4919D01*
Y4962D02*
Y4974D01*
Y5005D02*
Y5029D01*
Y5048D02*
Y5056D01*
Y5083D02*
Y5107D01*
Y5122D02*
Y5150D01*
Y5154D02*
Y5173D01*
Y5255D02*
Y5267D01*
X6246Y4473D02*
Y4508D01*
Y4540D02*
Y4575D01*
Y4622D02*
Y4641D01*
Y4684D02*
Y4696D01*
Y4727D02*
Y4731D01*
Y4794D02*
Y4802D01*
Y4864D02*
Y4880D01*
Y4911D02*
Y4919D01*
Y4962D02*
Y4974D01*
Y5005D02*
Y5029D01*
Y5048D02*
Y5056D01*
Y5083D02*
Y5107D01*
Y5122D02*
Y5150D01*
Y5154D02*
Y5173D01*
Y5255D02*
Y5267D01*
X6247Y4473D02*
Y4508D01*
Y4540D02*
Y4575D01*
Y4622D02*
Y4641D01*
Y4684D02*
Y4696D01*
Y4727D02*
Y4731D01*
Y4794D02*
Y4802D01*
Y4864D02*
Y4880D01*
Y4911D02*
Y4919D01*
Y4962D02*
Y4974D01*
Y5005D02*
Y5029D01*
Y5048D02*
Y5056D01*
Y5083D02*
Y5107D01*
Y5122D02*
Y5150D01*
Y5154D02*
Y5173D01*
Y5255D02*
Y5267D01*
X6248Y4473D02*
Y4508D01*
Y4540D02*
Y4575D01*
Y4622D02*
Y4641D01*
Y4684D02*
Y4696D01*
Y4727D02*
Y4731D01*
Y4794D02*
Y4802D01*
Y4864D02*
Y4880D01*
Y4911D02*
Y4919D01*
Y4962D02*
Y4974D01*
Y5005D02*
Y5029D01*
Y5048D02*
Y5056D01*
Y5083D02*
Y5107D01*
Y5122D02*
Y5150D01*
Y5154D02*
Y5173D01*
Y5255D02*
Y5267D01*
X6249Y4473D02*
Y4508D01*
Y4540D02*
Y4575D01*
Y4622D02*
Y4641D01*
Y4684D02*
Y4696D01*
Y4727D02*
Y4731D01*
Y4794D02*
Y4802D01*
Y4864D02*
Y4880D01*
Y4911D02*
Y4919D01*
Y4962D02*
Y4974D01*
Y5005D02*
Y5029D01*
Y5048D02*
Y5056D01*
Y5083D02*
Y5107D01*
Y5122D02*
Y5150D01*
Y5154D02*
Y5173D01*
Y5255D02*
Y5267D01*
X6250Y4473D02*
Y4508D01*
Y4540D02*
Y4575D01*
Y4622D02*
Y4641D01*
Y4684D02*
Y4696D01*
Y4727D02*
Y4731D01*
Y4794D02*
Y4802D01*
Y4864D02*
Y4880D01*
Y4911D02*
Y4919D01*
Y4962D02*
Y4974D01*
Y5005D02*
Y5029D01*
Y5048D02*
Y5056D01*
Y5083D02*
Y5107D01*
Y5122D02*
Y5150D01*
Y5154D02*
Y5173D01*
Y5255D02*
Y5267D01*
X6251Y4473D02*
Y4508D01*
Y4540D02*
Y4575D01*
Y4622D02*
Y4641D01*
Y4684D02*
Y4696D01*
Y4727D02*
Y4731D01*
Y4794D02*
Y4802D01*
Y4864D02*
Y4880D01*
Y4911D02*
Y4919D01*
Y4962D02*
Y4974D01*
Y5005D02*
Y5029D01*
Y5048D02*
Y5056D01*
Y5083D02*
Y5107D01*
Y5122D02*
Y5150D01*
Y5154D02*
Y5173D01*
Y5255D02*
Y5267D01*
X6252Y4473D02*
Y4508D01*
Y4540D02*
Y4575D01*
Y4622D02*
Y4676D01*
Y4684D02*
Y4696D01*
Y4727D02*
Y4782D01*
Y4798D02*
Y4849D01*
Y4864D02*
Y4896D01*
Y4911D02*
Y4919D01*
Y4970D02*
Y5017D01*
Y5048D02*
Y5056D01*
Y5083D02*
Y5107D01*
Y5122D02*
Y5150D01*
Y5158D02*
Y5212D01*
Y5220D02*
Y5267D01*
X6253Y4473D02*
Y4508D01*
Y4540D02*
Y4575D01*
Y4622D02*
Y4676D01*
Y4684D02*
Y4696D01*
Y4727D02*
Y4782D01*
Y4798D02*
Y4849D01*
Y4864D02*
Y4896D01*
Y4911D02*
Y4919D01*
Y4970D02*
Y5017D01*
Y5048D02*
Y5056D01*
Y5083D02*
Y5107D01*
Y5122D02*
Y5150D01*
Y5158D02*
Y5212D01*
Y5220D02*
Y5267D01*
X6254Y4473D02*
Y4508D01*
Y4540D02*
Y4575D01*
Y4622D02*
Y4676D01*
Y4684D02*
Y4696D01*
Y4727D02*
Y4782D01*
Y4798D02*
Y4849D01*
Y4864D02*
Y4896D01*
Y4911D02*
Y4919D01*
Y4970D02*
Y5017D01*
Y5048D02*
Y5056D01*
Y5083D02*
Y5107D01*
Y5122D02*
Y5150D01*
Y5158D02*
Y5212D01*
Y5220D02*
Y5267D01*
X6255Y4473D02*
Y4508D01*
Y4540D02*
Y4575D01*
Y4622D02*
Y4676D01*
Y4684D02*
Y4696D01*
Y4727D02*
Y4782D01*
Y4798D02*
Y4849D01*
Y4864D02*
Y4896D01*
Y4911D02*
Y4919D01*
Y4970D02*
Y5017D01*
Y5048D02*
Y5056D01*
Y5083D02*
Y5107D01*
Y5122D02*
Y5150D01*
Y5158D02*
Y5212D01*
Y5220D02*
Y5267D01*
X6256Y4473D02*
Y4508D01*
Y4540D02*
Y4575D01*
Y4622D02*
Y4676D01*
Y4684D02*
Y4696D01*
Y4731D02*
Y4770D01*
Y4802D02*
Y4837D01*
Y4864D02*
Y4896D01*
Y4911D02*
Y4919D01*
Y4974D02*
Y5005D01*
Y5048D02*
Y5056D01*
Y5083D02*
Y5107D01*
Y5122D02*
Y5150D01*
Y5173D02*
Y5201D01*
Y5224D02*
Y5259D01*
X6257Y4473D02*
Y4508D01*
Y4540D02*
Y4575D01*
Y4622D02*
Y4676D01*
Y4684D02*
Y4696D01*
Y4731D02*
Y4770D01*
Y4802D02*
Y4837D01*
Y4864D02*
Y4896D01*
Y4911D02*
Y4919D01*
Y4974D02*
Y5005D01*
Y5048D02*
Y5056D01*
Y5083D02*
Y5107D01*
Y5122D02*
Y5150D01*
Y5173D02*
Y5201D01*
Y5224D02*
Y5259D01*
X6258Y4473D02*
Y4508D01*
Y4540D02*
Y4575D01*
Y4622D02*
Y4676D01*
Y4684D02*
Y4696D01*
Y4731D02*
Y4770D01*
Y4802D02*
Y4837D01*
Y4864D02*
Y4896D01*
Y4911D02*
Y4919D01*
Y4974D02*
Y5005D01*
Y5048D02*
Y5056D01*
Y5083D02*
Y5107D01*
Y5122D02*
Y5150D01*
Y5173D02*
Y5201D01*
Y5224D02*
Y5259D01*
X6259Y4473D02*
Y4508D01*
Y4540D02*
Y4575D01*
Y4622D02*
Y4676D01*
Y4684D02*
Y4696D01*
Y4731D02*
Y4770D01*
Y4802D02*
Y4837D01*
Y4864D02*
Y4896D01*
Y4911D02*
Y4919D01*
Y4974D02*
Y5005D01*
Y5048D02*
Y5056D01*
Y5083D02*
Y5107D01*
Y5122D02*
Y5150D01*
Y5173D02*
Y5201D01*
Y5224D02*
Y5259D01*
X6260Y4473D02*
Y4508D01*
Y4540D02*
Y4575D01*
Y4622D02*
Y4676D01*
Y4684D02*
Y4696D01*
Y4731D02*
Y4770D01*
Y4802D02*
Y4837D01*
Y4864D02*
Y4896D01*
Y4911D02*
Y4919D01*
Y4974D02*
Y5005D01*
Y5048D02*
Y5056D01*
Y5083D02*
Y5107D01*
Y5122D02*
Y5150D01*
Y5173D02*
Y5201D01*
Y5224D02*
Y5259D01*
X6261Y4473D02*
Y4508D01*
Y4540D02*
Y4575D01*
Y4622D02*
Y4676D01*
Y4684D02*
Y4696D01*
Y4731D02*
Y4770D01*
Y4802D02*
Y4837D01*
Y4864D02*
Y4896D01*
Y4911D02*
Y4919D01*
Y4974D02*
Y5005D01*
Y5048D02*
Y5056D01*
Y5083D02*
Y5107D01*
Y5122D02*
Y5150D01*
Y5173D02*
Y5201D01*
Y5224D02*
Y5259D01*
X6262Y4473D02*
Y4508D01*
Y4540D02*
Y4575D01*
Y4622D02*
Y4676D01*
Y4684D02*
Y4696D01*
Y4731D02*
Y4770D01*
Y4802D02*
Y4837D01*
Y4864D02*
Y4896D01*
Y4911D02*
Y4919D01*
Y4974D02*
Y5005D01*
Y5048D02*
Y5056D01*
Y5083D02*
Y5107D01*
Y5122D02*
Y5150D01*
Y5173D02*
Y5201D01*
Y5224D02*
Y5259D01*
X6263Y4473D02*
Y4508D01*
Y4540D02*
Y4575D01*
Y4622D02*
Y4676D01*
Y4684D02*
Y4696D01*
Y4731D02*
Y4770D01*
Y4802D02*
Y4837D01*
Y4864D02*
Y4896D01*
Y4911D02*
Y4919D01*
Y4974D02*
Y5005D01*
Y5048D02*
Y5056D01*
Y5083D02*
Y5107D01*
Y5122D02*
Y5150D01*
Y5173D02*
Y5201D01*
Y5224D02*
Y5259D01*
X6264Y4473D02*
Y4508D01*
Y4540D02*
Y4575D01*
Y4622D02*
Y4676D01*
Y4684D02*
Y4696D01*
Y4731D02*
Y4770D01*
Y4802D02*
Y4837D01*
Y4864D02*
Y4896D01*
Y4911D02*
Y4919D01*
Y4974D02*
Y5005D01*
Y5048D02*
Y5056D01*
Y5083D02*
Y5107D01*
Y5122D02*
Y5150D01*
Y5173D02*
Y5201D01*
Y5224D02*
Y5259D01*
X6265Y4473D02*
Y4508D01*
Y4540D02*
Y4575D01*
Y4622D02*
Y4676D01*
Y4684D02*
Y4696D01*
Y4731D02*
Y4770D01*
Y4802D02*
Y4837D01*
Y4864D02*
Y4896D01*
Y4911D02*
Y4919D01*
Y4974D02*
Y5005D01*
Y5048D02*
Y5056D01*
Y5083D02*
Y5107D01*
Y5122D02*
Y5150D01*
Y5173D02*
Y5201D01*
Y5224D02*
Y5259D01*
X6266Y4473D02*
Y4508D01*
Y4540D02*
Y4575D01*
Y4622D02*
Y4676D01*
Y4684D02*
Y4696D01*
Y4731D02*
Y4770D01*
Y4802D02*
Y4837D01*
Y4864D02*
Y4896D01*
Y4911D02*
Y4919D01*
Y4974D02*
Y5005D01*
Y5048D02*
Y5056D01*
Y5083D02*
Y5107D01*
Y5122D02*
Y5150D01*
Y5173D02*
Y5201D01*
Y5224D02*
Y5259D01*
X6267Y4473D02*
Y4508D01*
Y4540D02*
Y4575D01*
Y4622D02*
Y4676D01*
Y4684D02*
Y4696D01*
Y4731D02*
Y4770D01*
Y4802D02*
Y4837D01*
Y4864D02*
Y4896D01*
Y4911D02*
Y4919D01*
Y4974D02*
Y5005D01*
Y5048D02*
Y5056D01*
Y5083D02*
Y5107D01*
Y5122D02*
Y5150D01*
Y5173D02*
Y5201D01*
Y5224D02*
Y5259D01*
X6268Y4473D02*
Y4508D01*
Y4540D02*
Y4575D01*
Y4622D02*
Y4676D01*
Y4684D02*
Y4696D01*
Y4731D02*
Y4770D01*
Y4802D02*
Y4837D01*
Y4864D02*
Y4896D01*
Y4911D02*
Y4919D01*
Y4974D02*
Y5005D01*
Y5048D02*
Y5056D01*
Y5083D02*
Y5107D01*
Y5122D02*
Y5150D01*
Y5173D02*
Y5201D01*
Y5224D02*
Y5259D01*
X6269Y4473D02*
Y4508D01*
Y4540D02*
Y4575D01*
Y4622D02*
Y4676D01*
Y4684D02*
Y4696D01*
Y4731D02*
Y4770D01*
Y4802D02*
Y4837D01*
Y4864D02*
Y4896D01*
Y4911D02*
Y4919D01*
Y4974D02*
Y5005D01*
Y5048D02*
Y5056D01*
Y5083D02*
Y5107D01*
Y5122D02*
Y5150D01*
Y5173D02*
Y5201D01*
Y5224D02*
Y5259D01*
X6270Y4473D02*
Y4508D01*
Y4540D02*
Y4575D01*
Y4622D02*
Y4676D01*
Y4684D02*
Y4696D01*
Y4731D02*
Y4770D01*
Y4802D02*
Y4837D01*
Y4864D02*
Y4896D01*
Y4911D02*
Y4919D01*
Y4974D02*
Y5005D01*
Y5048D02*
Y5056D01*
Y5083D02*
Y5107D01*
Y5122D02*
Y5150D01*
Y5173D02*
Y5201D01*
Y5224D02*
Y5259D01*
X6271Y4473D02*
Y4508D01*
Y4540D02*
Y4575D01*
Y4622D02*
Y4676D01*
Y4684D02*
Y4696D01*
Y4731D02*
Y4770D01*
Y4802D02*
Y4837D01*
Y4864D02*
Y4896D01*
Y4911D02*
Y4919D01*
Y4974D02*
Y5005D01*
Y5048D02*
Y5056D01*
Y5083D02*
Y5107D01*
Y5122D02*
Y5150D01*
Y5173D02*
Y5201D01*
Y5224D02*
Y5259D01*
X6272Y4473D02*
Y4508D01*
Y4540D02*
Y4575D01*
Y4622D02*
Y4676D01*
Y4684D02*
Y4696D01*
Y4731D02*
Y4770D01*
Y4802D02*
Y4837D01*
Y4864D02*
Y4896D01*
Y4911D02*
Y4919D01*
Y4974D02*
Y5005D01*
Y5048D02*
Y5056D01*
Y5083D02*
Y5107D01*
Y5122D02*
Y5150D01*
Y5173D02*
Y5201D01*
Y5224D02*
Y5259D01*
X6273Y4473D02*
Y4508D01*
Y4540D02*
Y4575D01*
Y4622D02*
Y4676D01*
Y4684D02*
Y4696D01*
Y4731D02*
Y4770D01*
Y4802D02*
Y4837D01*
Y4864D02*
Y4896D01*
Y4911D02*
Y4919D01*
Y4974D02*
Y5005D01*
Y5048D02*
Y5056D01*
Y5083D02*
Y5107D01*
Y5122D02*
Y5150D01*
Y5173D02*
Y5201D01*
Y5224D02*
Y5259D01*
X6274Y4473D02*
Y4508D01*
Y4540D02*
Y4575D01*
Y4622D02*
Y4676D01*
Y4684D02*
Y4696D01*
Y4731D02*
Y4770D01*
Y4802D02*
Y4837D01*
Y4864D02*
Y4896D01*
Y4911D02*
Y4919D01*
Y4974D02*
Y5005D01*
Y5048D02*
Y5056D01*
Y5083D02*
Y5107D01*
Y5122D02*
Y5150D01*
Y5173D02*
Y5201D01*
Y5224D02*
Y5259D01*
X6275Y4473D02*
Y4508D01*
Y4540D02*
Y4575D01*
Y4622D02*
Y4676D01*
Y4684D02*
Y4696D01*
Y4731D02*
Y4770D01*
Y4802D02*
Y4837D01*
Y4864D02*
Y4896D01*
Y4911D02*
Y4919D01*
Y4974D02*
Y5005D01*
Y5048D02*
Y5056D01*
Y5083D02*
Y5107D01*
Y5122D02*
Y5150D01*
Y5173D02*
Y5201D01*
Y5224D02*
Y5259D01*
X6276Y4473D02*
Y4508D01*
Y4540D02*
Y4575D01*
Y4622D02*
Y4676D01*
Y4684D02*
Y4696D01*
Y4731D02*
Y4770D01*
Y4802D02*
Y4837D01*
Y4864D02*
Y4896D01*
Y4911D02*
Y4919D01*
Y4974D02*
Y5005D01*
Y5048D02*
Y5056D01*
Y5083D02*
Y5107D01*
Y5122D02*
Y5150D01*
Y5173D02*
Y5201D01*
Y5224D02*
Y5259D01*
X6277Y4473D02*
Y4508D01*
Y4540D02*
Y4575D01*
X6278Y4473D02*
Y4508D01*
Y4540D02*
Y4575D01*
X6279Y4473D02*
Y4508D01*
Y4540D02*
Y4575D01*
X6280Y4473D02*
Y4508D01*
Y4540D02*
Y4575D01*
X6281Y4473D02*
Y4508D01*
Y4540D02*
Y4575D01*
X6282Y4473D02*
Y4508D01*
Y4540D02*
Y4575D01*
X6283Y4473D02*
Y4508D01*
Y4540D02*
Y4575D01*
X6284Y4473D02*
Y4508D01*
Y4540D02*
Y4575D01*
X6285Y4473D02*
Y4508D01*
Y4540D02*
Y4575D01*
X6286Y4473D02*
Y4508D01*
Y4540D02*
Y4575D01*
X6287Y4473D02*
Y4508D01*
Y4540D02*
Y4575D01*
X6288Y4473D02*
Y4508D01*
Y4540D02*
Y4575D01*
X6289Y4473D02*
Y4508D01*
Y4540D02*
Y4575D01*
X6290Y4473D02*
Y4508D01*
Y4540D02*
Y4575D01*
X6291Y4473D02*
Y4508D01*
Y4540D02*
Y4575D01*
X6292Y4473D02*
Y4508D01*
Y4540D02*
Y4575D01*
X6293Y4473D02*
Y4508D01*
Y4540D02*
Y4575D01*
X6294Y4473D02*
Y4508D01*
Y4540D02*
Y4575D01*
X6295Y4473D02*
Y4508D01*
Y4540D02*
Y4575D01*
X6296Y4473D02*
Y4508D01*
Y4540D02*
Y4575D01*
X6297Y4473D02*
Y4508D01*
Y4540D02*
Y4575D01*
X6298Y4473D02*
Y4508D01*
Y4540D02*
Y4575D01*
X6299Y4473D02*
Y4508D01*
Y4540D02*
Y4575D01*
X6300Y4473D02*
Y4508D01*
Y4540D02*
Y4575D01*
X6301Y4473D02*
Y4508D01*
Y4540D02*
Y4575D01*
X6302Y4473D02*
Y4508D01*
Y4540D02*
Y4575D01*
X6303Y4473D02*
Y4508D01*
Y4540D02*
Y4575D01*
X6304Y4473D02*
Y4508D01*
Y4540D02*
Y4575D01*
X6305Y4473D02*
Y4508D01*
Y4540D02*
Y4575D01*
X6306Y4473D02*
Y4508D01*
Y4540D02*
Y4575D01*
X6307Y4473D02*
Y4508D01*
Y4540D02*
Y4575D01*
X6308Y4473D02*
Y4508D01*
Y4540D02*
Y4575D01*
X6309Y4473D02*
Y4508D01*
Y4540D02*
Y4575D01*
X6310Y4473D02*
Y4508D01*
Y4540D02*
Y4575D01*
X6311Y4473D02*
Y4508D01*
Y4540D02*
Y4575D01*
X6312Y4473D02*
Y4508D01*
Y4540D02*
Y4575D01*
X6313Y4473D02*
Y4508D01*
Y4540D02*
Y4575D01*
X6314Y4473D02*
Y4508D01*
Y4540D02*
Y4575D01*
X6315Y4473D02*
Y4508D01*
Y4540D02*
Y4575D01*
X6316Y4473D02*
Y4508D01*
Y4540D02*
Y4575D01*
X6317Y4473D02*
Y4508D01*
Y4540D02*
Y4575D01*
X6318Y4473D02*
Y4508D01*
Y4540D02*
Y4575D01*
X6319Y4473D02*
Y4508D01*
Y4540D02*
Y4575D01*
X6320Y4473D02*
Y4508D01*
Y4540D02*
Y4575D01*
X6321Y4473D02*
Y4508D01*
Y4540D02*
Y4575D01*
X6322Y4473D02*
Y4508D01*
Y4540D02*
Y4575D01*
X6323Y4473D02*
Y4508D01*
Y4540D02*
Y4575D01*
X6324Y4473D02*
Y4508D01*
Y4540D02*
Y4575D01*
X6325Y4473D02*
Y4508D01*
Y4540D02*
Y4575D01*
X6326Y4473D02*
Y4508D01*
Y4540D02*
Y4575D01*
X6327Y4473D02*
Y4508D01*
Y4540D02*
Y4575D01*
X6328Y4473D02*
Y4508D01*
Y4540D02*
Y4575D01*
X6329Y4473D02*
Y4508D01*
Y4540D02*
Y4575D01*
X6330Y4473D02*
Y4508D01*
Y4540D02*
Y4575D01*
X6331Y4473D02*
Y4508D01*
Y4540D02*
Y4575D01*
X6332Y4473D02*
Y4508D01*
Y4540D02*
Y4575D01*
X6333Y4473D02*
Y4508D01*
Y4540D02*
Y4575D01*
X6334Y4473D02*
Y4508D01*
Y4540D02*
Y4575D01*
X6335Y4473D02*
Y4508D01*
Y4540D02*
Y4575D01*
X6336Y4473D02*
Y4575D01*
X6337Y4473D02*
Y4575D01*
X6338Y4473D02*
Y4575D01*
X6339Y4473D02*
Y4575D01*
X6340Y4473D02*
Y4575D01*
X6341Y4473D02*
Y4575D01*
X6342Y4473D02*
Y4575D01*
X6343Y4473D02*
Y4575D01*
X6344Y4473D02*
Y4575D01*
X6345Y4473D02*
Y4575D01*
X6346Y4473D02*
Y4575D01*
X6347Y4473D02*
Y4575D01*
X6348Y4473D02*
Y4575D01*
X6349Y4473D02*
Y4575D01*
X6350Y4473D02*
Y4575D01*
X6351Y4473D02*
Y4575D01*
X6352Y4473D02*
Y4575D01*
X6353Y4473D02*
Y4575D01*
X6354Y4473D02*
Y4575D01*
X6355Y4473D02*
Y4575D01*
X6356Y4473D02*
Y4575D01*
D12*
X3346Y5288D02*
D03*
Y4988D02*
D03*
X3169Y5406D02*
D03*
Y5106D02*
D03*
X3071Y5445D02*
D03*
Y5145D02*
D03*
X8752Y2638D02*
D03*
X8452D02*
D03*
X9205D02*
D03*
X8905D02*
D03*
X8260D02*
D03*
X7960D02*
D03*
X1059Y4796D02*
D03*
Y4496D02*
D03*
X1689Y4796D02*
D03*
Y4496D02*
D03*
X2201Y4796D02*
D03*
Y4496D02*
D03*
X8221Y256D02*
D03*
X7921D02*
D03*
X8610D02*
D03*
X8910D02*
D03*
X7480Y2586D02*
D03*
Y2886D02*
D03*
X5079Y4304D02*
D03*
Y4004D02*
D03*
X5276Y677D02*
D03*
Y977D02*
D03*
X4606Y4304D02*
D03*
Y4004D02*
D03*
X5642Y5689D02*
D03*
X5342D02*
D03*
X5229D02*
D03*
X4929D02*
D03*
X7488Y3110D02*
D03*
X7788D02*
D03*
D13*
X3154Y4993D02*
D03*
D14*
X3054D02*
D03*
X2954D02*
D03*
X2854D02*
D03*
X2754D02*
D03*
X2654D02*
D03*
X2554D02*
D03*
X3154Y4693D02*
D03*
X3054D02*
D03*
X2954D02*
D03*
X2854D02*
D03*
X2754D02*
D03*
X2654D02*
D03*
X2554D02*
D03*
D15*
X2795Y6063D02*
D03*
X2894D02*
D03*
X2992D02*
D03*
X2598Y4066D02*
D03*
Y3966D02*
D03*
Y3866D02*
D03*
Y3766D02*
D03*
Y3666D02*
D03*
Y3566D02*
D03*
Y3466D02*
D03*
Y3366D02*
D03*
X2913Y4066D02*
D03*
Y3966D02*
D03*
Y3866D02*
D03*
Y3766D02*
D03*
Y3666D02*
D03*
Y3566D02*
D03*
Y3466D02*
D03*
X4451Y5965D02*
D03*
Y5748D02*
D03*
D16*
X5038Y5413D02*
D03*
X5138D02*
D03*
D17*
X5238D02*
D03*
D18*
X4685Y3592D02*
D03*
Y3692D02*
D03*
X5295Y3611D02*
D03*
Y3711D02*
D03*
D19*
X8898Y1614D02*
D03*
Y906D02*
D03*
X8209D02*
D03*
Y1614D02*
D03*
Y2382D02*
D03*
D20*
X8720Y1614D02*
D03*
X8898Y1358D02*
D03*
X8720D02*
D03*
Y906D02*
D03*
X8898Y650D02*
D03*
X8720D02*
D03*
X8031Y906D02*
D03*
X8209Y650D02*
D03*
X8031D02*
D03*
Y1614D02*
D03*
X8209Y1358D02*
D03*
X8031D02*
D03*
Y2382D02*
D03*
X8209Y2126D02*
D03*
X8031D02*
D03*
D21*
X3622Y5039D02*
D03*
X3898D02*
D03*
X3622Y4843D02*
D03*
X3898D02*
D03*
D03*
X3622D02*
D03*
Y5531D02*
D03*
X3898D02*
D03*
X3622Y5335D02*
D03*
X3898D02*
D03*
D03*
X3622D02*
D03*
X173Y6122D02*
D03*
X449D02*
D03*
X173Y5925D02*
D03*
X449D02*
D03*
D03*
X173D02*
D03*
X1079D02*
D03*
X803D02*
D03*
X1079Y6122D02*
D03*
X803D02*
D03*
D03*
X1079D02*
D03*
X1709Y5925D02*
D03*
X1433D02*
D03*
X1709Y6122D02*
D03*
X1433D02*
D03*
D03*
X1709D02*
D03*
X2339Y5925D02*
D03*
X2063D02*
D03*
X2339Y6122D02*
D03*
X2063D02*
D03*
D03*
X2339D02*
D03*
X3898Y5945D02*
D03*
X3622D02*
D03*
X3898Y6142D02*
D03*
X3622D02*
D03*
D03*
X3898D02*
D03*
D22*
X5866Y5827D02*
D03*
D23*
X6051Y5709D02*
D03*
D24*
Y5945D02*
D03*
D25*
X1143Y5520D02*
D03*
Y5020D02*
D03*
X843D02*
D03*
Y5420D02*
D03*
Y5620D02*
D03*
X1694Y5520D02*
D03*
Y5020D02*
D03*
X1394D02*
D03*
Y5420D02*
D03*
Y5620D02*
D03*
X2245Y5520D02*
D03*
Y5020D02*
D03*
X1945D02*
D03*
Y5420D02*
D03*
Y5620D02*
D03*
D26*
X862Y4794D02*
D03*
X2004D02*
D03*
D27*
X862Y4744D02*
D03*
Y4694D02*
D03*
X2004Y4744D02*
D03*
Y4694D02*
D03*
D28*
X1448Y4744D02*
D03*
X2844Y5276D02*
D03*
X2894D02*
D03*
D29*
X1398Y4744D02*
D03*
X1348D02*
D03*
X2944Y5276D02*
D03*
D30*
X2913Y3366D02*
D03*
X4171Y5965D02*
D03*
Y5748D02*
D03*
D31*
X6083Y854D02*
D03*
Y1154D02*
D03*
X5630Y854D02*
D03*
Y1154D02*
D03*
X3917Y2874D02*
D03*
X4017D02*
D03*
X4117D02*
D03*
X4217D02*
D03*
X4317D02*
D03*
X4417D02*
D03*
X4517D02*
D03*
X4617D02*
D03*
X4717D02*
D03*
X4817D02*
D03*
X4917D02*
D03*
X5017D02*
D03*
X5117D02*
D03*
X5217D02*
D03*
X5317D02*
D03*
X5417D02*
D03*
X5517D02*
D03*
X5617D02*
D03*
X5717D02*
D03*
X5817D02*
D03*
D03*
Y2244D02*
D03*
X5717D02*
D03*
X5617D02*
D03*
X5517D02*
D03*
X5417D02*
D03*
X5317D02*
D03*
X5217D02*
D03*
X5117D02*
D03*
X5017D02*
D03*
X4917D02*
D03*
X4817D02*
D03*
X4717D02*
D03*
X4617D02*
D03*
X4517D02*
D03*
X4417D02*
D03*
X4317D02*
D03*
X4217D02*
D03*
X4117D02*
D03*
X4017D02*
D03*
X4705Y5126D02*
D03*
Y5426D02*
D03*
D32*
X5591Y1516D02*
D03*
X5783D02*
D03*
D33*
X3917Y2244D02*
D03*
D34*
X7972Y3226D02*
D03*
D03*
Y3326D02*
D03*
Y3426D02*
D03*
Y3526D02*
D03*
Y3626D02*
D03*
Y3726D02*
D03*
Y3826D02*
D03*
Y3926D02*
D03*
Y4026D02*
D03*
Y4126D02*
D03*
Y4226D02*
D03*
Y4326D02*
D03*
Y4426D02*
D03*
Y4526D02*
D03*
Y4626D02*
D03*
D35*
Y3126D02*
D03*
D36*
X4647Y1122D02*
D03*
X4547D02*
D03*
X4723Y1829D02*
D03*
Y139D02*
D03*
X4623D02*
D03*
X4523D02*
D03*
X4423D02*
D03*
X4323D02*
D03*
X4223D02*
D03*
X4023D02*
D03*
X3923D02*
D03*
X3823D02*
D03*
X3723D02*
D03*
X3623D02*
D03*
X3523D02*
D03*
X3423D02*
D03*
X3323D02*
D03*
X4547Y1022D02*
D03*
X4647D02*
D03*
X4547Y922D02*
D03*
X4647D02*
D03*
X4623Y1829D02*
D03*
X4523D02*
D03*
X4423D02*
D03*
X4323D02*
D03*
X4223D02*
D03*
X4123D02*
D03*
X4023D02*
D03*
X3823D02*
D03*
X3723D02*
D03*
X3623D02*
D03*
X3523D02*
D03*
X3423D02*
D03*
X3323D02*
D03*
X3223D02*
D03*
X3123D02*
D03*
X3023D02*
D03*
X2923D02*
D03*
M02*
