%FSLAX23Y23*%
%MOIN*%
G70*
G01*
G75*
G04 Layer_Color=8388736*
%ADD10C,0.010*%
%ADD11C,0.001*%
%ADD12C,0.055*%
%ADD13R,0.059X0.059*%
%ADD14C,0.059*%
%ADD15C,0.059*%
%ADD16C,0.063*%
%ADD17R,0.063X0.063*%
%ADD18C,0.070*%
%ADD19R,0.075X0.075*%
%ADD20C,0.075*%
%ADD21C,0.106*%
G04:AMPARAMS|DCode=22|XSize=173mil|YSize=94mil|CornerRadius=24mil|HoleSize=0mil|Usage=FLASHONLY|Rotation=90.000|XOffset=0mil|YOffset=0mil|HoleType=Round|Shape=RoundedRectangle|*
%AMROUNDEDRECTD22*
21,1,0.173,0.047,0,0,90.0*
21,1,0.126,0.094,0,0,90.0*
1,1,0.047,0.024,0.063*
1,1,0.047,0.024,-0.063*
1,1,0.047,-0.024,-0.063*
1,1,0.047,-0.024,0.063*
%
%ADD22ROUNDEDRECTD22*%
%ADD23R,0.185X0.094*%
G04:AMPARAMS|DCode=24|XSize=173mil|YSize=94mil|CornerRadius=24mil|HoleSize=0mil|Usage=FLASHONLY|Rotation=180.000|XOffset=0mil|YOffset=0mil|HoleType=Round|Shape=RoundedRectangle|*
%AMROUNDEDRECTD24*
21,1,0.173,0.047,0,0,180.0*
21,1,0.126,0.094,0,0,180.0*
1,1,0.047,-0.063,0.024*
1,1,0.047,0.063,0.024*
1,1,0.047,0.063,-0.024*
1,1,0.047,-0.063,-0.024*
%
%ADD24ROUNDEDRECTD24*%
%ADD25C,0.091*%
%ADD26O,0.079X0.039*%
%ADD27O,0.079X0.039*%
%ADD28O,0.039X0.079*%
%ADD29O,0.039X0.079*%
%ADD30R,0.059X0.059*%
%ADD31C,0.047*%
%ADD32C,0.039*%
%ADD33R,0.047X0.047*%
%ADD34C,0.079*%
%ADD35R,0.079X0.079*%
%ADD36C,0.071*%
%ADD37C,0.008*%
%ADD38C,0.005*%
%ADD39C,0.010*%
%ADD40C,0.006*%
%ADD41R,0.031X0.075*%
%ADD42C,0.063*%
%ADD43R,0.067X0.067*%
%ADD44C,0.067*%
%ADD45C,0.067*%
%ADD46C,0.071*%
%ADD47R,0.071X0.071*%
%ADD48C,0.078*%
%ADD49R,0.083X0.083*%
%ADD50C,0.083*%
%ADD51C,0.114*%
G04:AMPARAMS|DCode=52|XSize=181mil|YSize=102mil|CornerRadius=28mil|HoleSize=0mil|Usage=FLASHONLY|Rotation=90.000|XOffset=0mil|YOffset=0mil|HoleType=Round|Shape=RoundedRectangle|*
%AMROUNDEDRECTD52*
21,1,0.181,0.047,0,0,90.0*
21,1,0.126,0.102,0,0,90.0*
1,1,0.055,0.024,0.063*
1,1,0.055,0.024,-0.063*
1,1,0.055,-0.024,-0.063*
1,1,0.055,-0.024,0.063*
%
%ADD52ROUNDEDRECTD52*%
%ADD53R,0.193X0.102*%
G04:AMPARAMS|DCode=54|XSize=181mil|YSize=102mil|CornerRadius=28mil|HoleSize=0mil|Usage=FLASHONLY|Rotation=180.000|XOffset=0mil|YOffset=0mil|HoleType=Round|Shape=RoundedRectangle|*
%AMROUNDEDRECTD54*
21,1,0.181,0.047,0,0,180.0*
21,1,0.126,0.102,0,0,180.0*
1,1,0.055,-0.063,0.024*
1,1,0.055,0.063,0.024*
1,1,0.055,0.063,-0.024*
1,1,0.055,-0.063,-0.024*
%
%ADD54ROUNDEDRECTD54*%
%ADD55C,0.099*%
%ADD56O,0.087X0.047*%
%ADD57O,0.087X0.047*%
%ADD58O,0.047X0.087*%
%ADD59O,0.047X0.087*%
%ADD60R,0.067X0.067*%
%ADD61C,0.055*%
%ADD62C,0.047*%
%ADD63R,0.055X0.055*%
%ADD64C,0.087*%
%ADD65R,0.087X0.087*%
%ADD66C,0.079*%
D42*
X3346Y5288D02*
D03*
Y4988D02*
D03*
X3169Y5406D02*
D03*
Y5106D02*
D03*
X3071Y5445D02*
D03*
Y5145D02*
D03*
X8752Y2638D02*
D03*
X8452D02*
D03*
X9205D02*
D03*
X8905D02*
D03*
X8260D02*
D03*
X7960D02*
D03*
X1059Y4796D02*
D03*
Y4496D02*
D03*
X1689Y4796D02*
D03*
Y4496D02*
D03*
X2201Y4796D02*
D03*
Y4496D02*
D03*
X8221Y256D02*
D03*
X7921D02*
D03*
X8610D02*
D03*
X8910D02*
D03*
X7480Y2586D02*
D03*
Y2886D02*
D03*
X5079Y4304D02*
D03*
Y4004D02*
D03*
X5276Y677D02*
D03*
Y977D02*
D03*
X4606Y4304D02*
D03*
Y4004D02*
D03*
X5642Y5689D02*
D03*
X5342D02*
D03*
X5229D02*
D03*
X4929D02*
D03*
X7488Y3110D02*
D03*
X7788D02*
D03*
D43*
X3154Y4993D02*
D03*
D44*
X3054D02*
D03*
X2954D02*
D03*
X2854D02*
D03*
X2754D02*
D03*
X2654D02*
D03*
X2554D02*
D03*
X3154Y4693D02*
D03*
X3054D02*
D03*
X2954D02*
D03*
X2854D02*
D03*
X2754D02*
D03*
X2654D02*
D03*
X2554D02*
D03*
D45*
X2795Y6063D02*
D03*
X2894D02*
D03*
X2992D02*
D03*
X2598Y4066D02*
D03*
Y3966D02*
D03*
Y3866D02*
D03*
Y3766D02*
D03*
Y3666D02*
D03*
Y3566D02*
D03*
Y3466D02*
D03*
Y3366D02*
D03*
X2913Y4066D02*
D03*
Y3966D02*
D03*
Y3866D02*
D03*
Y3766D02*
D03*
Y3666D02*
D03*
Y3566D02*
D03*
Y3466D02*
D03*
X4451Y5965D02*
D03*
Y5748D02*
D03*
D46*
X5038Y5413D02*
D03*
X5138D02*
D03*
D47*
X5238D02*
D03*
D48*
X4685Y3592D02*
D03*
Y3692D02*
D03*
X5295Y3611D02*
D03*
Y3711D02*
D03*
D49*
X8898Y1614D02*
D03*
Y906D02*
D03*
X8209D02*
D03*
Y1614D02*
D03*
Y2382D02*
D03*
D50*
X8720Y1614D02*
D03*
X8898Y1358D02*
D03*
X8720D02*
D03*
Y906D02*
D03*
X8898Y650D02*
D03*
X8720D02*
D03*
X8031Y906D02*
D03*
X8209Y650D02*
D03*
X8031D02*
D03*
Y1614D02*
D03*
X8209Y1358D02*
D03*
X8031D02*
D03*
Y2382D02*
D03*
X8209Y2126D02*
D03*
X8031D02*
D03*
D51*
X3622Y5039D02*
D03*
X3898D02*
D03*
X3622Y4843D02*
D03*
X3898D02*
D03*
D03*
X3622D02*
D03*
Y5531D02*
D03*
X3898D02*
D03*
X3622Y5335D02*
D03*
X3898D02*
D03*
D03*
X3622D02*
D03*
X173Y6122D02*
D03*
X449D02*
D03*
X173Y5925D02*
D03*
X449D02*
D03*
D03*
X173D02*
D03*
X1079D02*
D03*
X803D02*
D03*
X1079Y6122D02*
D03*
X803D02*
D03*
D03*
X1079D02*
D03*
X1709Y5925D02*
D03*
X1433D02*
D03*
X1709Y6122D02*
D03*
X1433D02*
D03*
D03*
X1709D02*
D03*
X2339Y5925D02*
D03*
X2063D02*
D03*
X2339Y6122D02*
D03*
X2063D02*
D03*
D03*
X2339D02*
D03*
X3898Y5945D02*
D03*
X3622D02*
D03*
X3898Y6142D02*
D03*
X3622D02*
D03*
D03*
X3898D02*
D03*
D52*
X5866Y5827D02*
D03*
D53*
X6051Y5709D02*
D03*
D54*
Y5945D02*
D03*
D55*
X1143Y5520D02*
D03*
Y5020D02*
D03*
X843D02*
D03*
Y5420D02*
D03*
Y5620D02*
D03*
X1694Y5520D02*
D03*
Y5020D02*
D03*
X1394D02*
D03*
Y5420D02*
D03*
Y5620D02*
D03*
X2245Y5520D02*
D03*
Y5020D02*
D03*
X1945D02*
D03*
Y5420D02*
D03*
Y5620D02*
D03*
D56*
X862Y4794D02*
D03*
X2004D02*
D03*
D57*
X862Y4744D02*
D03*
Y4694D02*
D03*
X2004Y4744D02*
D03*
Y4694D02*
D03*
D58*
X1448Y4744D02*
D03*
X2844Y5276D02*
D03*
X2894D02*
D03*
D59*
X1398Y4744D02*
D03*
X1348D02*
D03*
X2944Y5276D02*
D03*
D60*
X2913Y3366D02*
D03*
X4171Y5965D02*
D03*
Y5748D02*
D03*
D61*
X6083Y854D02*
D03*
Y1154D02*
D03*
X5630Y854D02*
D03*
Y1154D02*
D03*
X3917Y2874D02*
D03*
X4017D02*
D03*
X4117D02*
D03*
X4217D02*
D03*
X4317D02*
D03*
X4417D02*
D03*
X4517D02*
D03*
X4617D02*
D03*
X4717D02*
D03*
X4817D02*
D03*
X4917D02*
D03*
X5017D02*
D03*
X5117D02*
D03*
X5217D02*
D03*
X5317D02*
D03*
X5417D02*
D03*
X5517D02*
D03*
X5617D02*
D03*
X5717D02*
D03*
X5817D02*
D03*
D03*
Y2244D02*
D03*
X5717D02*
D03*
X5617D02*
D03*
X5517D02*
D03*
X5417D02*
D03*
X5317D02*
D03*
X5217D02*
D03*
X5117D02*
D03*
X5017D02*
D03*
X4917D02*
D03*
X4817D02*
D03*
X4717D02*
D03*
X4617D02*
D03*
X4517D02*
D03*
X4417D02*
D03*
X4317D02*
D03*
X4217D02*
D03*
X4117D02*
D03*
X4017D02*
D03*
X4705Y5126D02*
D03*
Y5426D02*
D03*
D62*
X5591Y1516D02*
D03*
X5783D02*
D03*
D63*
X3917Y2244D02*
D03*
D64*
X7972Y3226D02*
D03*
D03*
Y3326D02*
D03*
Y3426D02*
D03*
Y3526D02*
D03*
Y3626D02*
D03*
Y3726D02*
D03*
Y3826D02*
D03*
Y3926D02*
D03*
Y4026D02*
D03*
Y4126D02*
D03*
Y4226D02*
D03*
Y4326D02*
D03*
Y4426D02*
D03*
Y4526D02*
D03*
Y4626D02*
D03*
D65*
Y3126D02*
D03*
D66*
X4647Y1122D02*
D03*
X4547D02*
D03*
X4723Y1829D02*
D03*
Y139D02*
D03*
X4623D02*
D03*
X4523D02*
D03*
X4423D02*
D03*
X4323D02*
D03*
X4223D02*
D03*
X4023D02*
D03*
X3923D02*
D03*
X3823D02*
D03*
X3723D02*
D03*
X3623D02*
D03*
X3523D02*
D03*
X3423D02*
D03*
X3323D02*
D03*
X4547Y1022D02*
D03*
X4647D02*
D03*
X4547Y922D02*
D03*
X4647D02*
D03*
X4623Y1829D02*
D03*
X4523D02*
D03*
X4423D02*
D03*
X4323D02*
D03*
X4223D02*
D03*
X4123D02*
D03*
X4023D02*
D03*
X3823D02*
D03*
X3723D02*
D03*
X3623D02*
D03*
X3523D02*
D03*
X3423D02*
D03*
X3323D02*
D03*
X3223D02*
D03*
X3123D02*
D03*
X3023D02*
D03*
X2923D02*
D03*
M02*
